<?xml version="1.0" encoding="utf-8"?>
<!-- Generator: Adobe Illustrator 22.0.0, SVG Export Plug-In . SVG Version: 6.00 Build 0)  -->
<svg version="1.1" id="Layer_1" xmlns="http://www.w3.org/2000/svg" xmlns:xlink="http://www.w3.org/1999/xlink" x="0px" y="0px"
	 width="112px" height="250.5px" viewBox="0 0 112 250.5" style="enable-background:new 0 0 112 250.5;" xml:space="preserve">
<style type="text/css">
	.st0{fill:#FFFFFF;}
	.st1{fill:#AEDBE2;stroke:#FFFFFF;stroke-width:2;stroke-miterlimit:10;}
</style>
<path class="st0" d="M34.4,86.6l-0.4,1.1c-1.7,0.9-3.6,1.3-5.6,1.3c-2.8,0-5.1-0.8-6.9-2.4s-2.6-3.7-2.6-6.3c0-1.8,0.4-3.3,1.3-4.7
	s2-2.3,3.5-3s3.1-1,4.9-1c1,0,2.1,0.1,3.1,0.3s1.9,0.5,2.5,0.8l0.1,0.1c-0.2,0.4-0.3,1.5-0.5,3.2l-0.1,0.1h-0.6L33,76.2l-0.1-2
	c-0.6-0.5-1.3-0.8-2.1-1.1s-1.7-0.4-2.5-0.4c-1.3,0-2.5,0.3-3.6,0.8s-1.9,1.4-2.4,2.5s-0.9,2.4-0.9,3.9c0,1.6,0.3,2.9,1,4.1
	s1.6,2.1,2.8,2.7s2.5,0.9,4.1,0.9c0.7,0,1.4-0.1,2-0.2s1.2-0.3,1.6-0.5s0.8-0.4,1.2-0.7L34.4,86.6z"/>
<path class="st0" d="M35.5,72.1L35.5,72.1c2,0,3.1,0,3.4,0c0.3,0,1.4,0,3.4-0.1l0.1,0.1v0.6l-0.1,0.1c-0.5,0-1,0-1.2,0.1
	S40.5,73,40.4,73s-0.2,0.3-0.3,0.6s-0.1,0.8-0.1,1.3l0,2.7v5.2c0,1.3,0,2.2,0,2.7l0.1,2h2.4c1.9,0,3.1,0,3.6-0.1s0.9-0.2,1.4-0.3
	c0.1-0.2,0.2-0.6,0.4-1.3s0.2-1.1,0.3-1.2l0.1-0.1h0.6l0.1,0.1c-0.1,0.3-0.1,0.9-0.2,1.8s-0.1,1.6-0.1,2.2l-0.1,0.1
	c-1.5,0-3.4-0.1-5.8-0.1l-3.4,0c-0.8,0-1.6,0-2.4,0.1l-0.1-0.1v-0.4l0.1-0.1c0.5-0.3,0.8-0.4,0.8-0.5s0.1-0.6,0.1-1.5
	s0.1-2.1,0.1-3.4v-5l0-2.3c0-0.9,0-1.5-0.1-1.7s-0.1-0.4-0.2-0.5s-0.2-0.2-0.4-0.2s-0.7-0.1-1.6-0.1l-0.1-0.1V72.1z"/>
<path class="st0" d="M50.2,88.7l-0.1-0.1V88l0.1-0.1c0.6,0,0.9,0,1.1-0.1s0.3-0.2,0.4-0.3s0.4-0.7,0.8-1.5l1.2-2.7l3.2-7.2
	c0.6-1.4,1.2-2.8,1.8-4.2h0.8l5,11.8l0.7,1.6c0.2,0.4,0.4,0.9,0.7,1.5s0.4,0.8,0.5,0.9s0.2,0.2,0.4,0.2s0.5,0.1,1,0.1l0.1,0.1v0.6
	l-0.1,0.1c-0.8-0.1-1.6-0.1-2.2-0.1c-1.3,0-2.6,0.1-3.9,0.1l-0.1-0.1V88l0.1-0.1c0.9,0,1.4-0.1,1.6-0.1s0.3-0.2,0.3-0.4
	c0-0.2-0.1-0.4-0.2-0.7l-1.4-3.6h-6.8l-1.3,3c-0.2,0.5-0.3,0.9-0.3,1.2c0,0.2,0.1,0.3,0.3,0.4s0.7,0.1,1.6,0.2l0.1,0.1v0.6l-0.1,0.1
	c-1-0.1-1.9-0.1-2.6-0.1C52,88.6,51.1,88.6,50.2,88.7z M55.6,82.1h5.9l-2.9-7.1L55.6,82.1z"/>
<path class="st0" d="M69.3,84.6L69.3,84.6l0.7-0.1l0.1,0.1c0,1,0.1,1.6,0.2,1.8s0.3,0.5,0.6,0.7s0.8,0.4,1.4,0.6S73.4,88,74,88
	c0.8,0,1.6-0.2,2.2-0.5s1.2-0.8,1.5-1.3s0.6-1.3,0.6-2c0-0.5-0.1-1-0.3-1.3s-0.4-0.7-0.7-0.9s-0.7-0.4-1.1-0.5s-1-0.2-1.8-0.4
	c-0.8-0.1-1.4-0.2-1.8-0.3s-0.9-0.3-1.3-0.5s-0.8-0.5-1.1-0.8s-0.5-0.7-0.7-1.2s-0.3-1-0.3-1.5c0-1.5,0.5-2.7,1.5-3.6
	s2.4-1.4,4.1-1.4c0.7,0,1.4,0.1,2.2,0.3s1.5,0.4,2.2,0.7l0.1,0.1c-0.2,0.7-0.3,1.7-0.3,3.1L78.9,76h-0.6l-0.1-0.1
	c0-0.9,0-1.5-0.1-1.8s-0.4-0.5-1.1-0.9s-1.4-0.5-2.2-0.5c-0.7,0-1.3,0.1-1.9,0.4s-1,0.7-1.3,1.3s-0.4,1.2-0.4,1.7
	c0,0.5,0.1,0.9,0.3,1.2s0.4,0.6,0.7,0.8s0.6,0.4,1,0.5s1.1,0.2,2.1,0.4c1.4,0.2,2.4,0.4,3,0.7s1.1,0.7,1.5,1.3s0.6,1.3,0.6,2.2
	c0,1.7-0.7,3.1-2,4.2s-3,1.7-4.9,1.7c-1.6,0-3-0.3-4.3-0.9L69.1,88C69.2,87.5,69.2,86.4,69.3,84.6z"/>
<path class="st0" d="M81.9,84.6L81.9,84.6l0.7-0.1l0.1,0.1c0,1,0.1,1.6,0.2,1.8s0.3,0.5,0.6,0.7s0.8,0.4,1.4,0.6S86,88,86.6,88
	c0.8,0,1.6-0.2,2.2-0.5s1.2-0.8,1.5-1.3s0.6-1.3,0.6-2c0-0.5-0.1-1-0.3-1.3s-0.4-0.7-0.7-0.9s-0.7-0.4-1.1-0.5s-1-0.2-1.8-0.4
	c-0.8-0.1-1.4-0.2-1.8-0.3s-0.9-0.3-1.3-0.5s-0.8-0.5-1.1-0.8s-0.5-0.7-0.7-1.2s-0.3-1-0.3-1.5c0-1.5,0.5-2.7,1.5-3.6
	s2.4-1.4,4.1-1.4c0.7,0,1.4,0.1,2.2,0.3s1.5,0.4,2.2,0.7l0.1,0.1c-0.2,0.7-0.3,1.7-0.3,3.1L91.5,76h-0.6l-0.1-0.1
	c0-0.9,0-1.5-0.1-1.8s-0.4-0.5-1.1-0.9s-1.4-0.5-2.2-0.5c-0.7,0-1.3,0.1-1.9,0.4s-1,0.7-1.3,1.3s-0.4,1.2-0.4,1.7
	c0,0.5,0.1,0.9,0.3,1.2s0.4,0.6,0.7,0.8s0.6,0.4,1,0.5s1.1,0.2,2.1,0.4c1.4,0.2,2.4,0.4,3,0.7s1.1,0.7,1.5,1.3s0.6,1.3,0.6,2.2
	c0,1.7-0.7,3.1-2,4.2S88,89,86,89c-1.6,0-3-0.3-4.3-0.9L81.7,88C81.8,87.5,81.8,86.4,81.9,84.6z"/>
<path class="st0" d="M69.1,132c-0.2,2.3-0.3,4.5-0.1,6.5l-0.4,0.4c-5.4-0.2-9.8-0.3-13.2-0.3c-3.6,0-7.8,0.1-12.7,0.3l-0.4-0.4v-2.7
	l6-6.1c4.5-4.6,7.4-8,8.8-10.4c0.8-1.4,1.4-2.7,1.7-3.8c0.3-1.1,0.5-2.4,0.5-3.6c0-4.7-2.1-7-6.4-7c-2.4,0-4.3,0.9-5.7,2.7
	c-0.2,0.8-0.6,2.3-1.1,4.4l-0.3,0.3h-1.7l-0.3-0.3l1.1-9.8c2.5-2.5,5.9-3.7,10.3-3.7c3.9,0,7,1,9.1,3.1c2,1.9,3,4.4,3,7.5
	c0,1.3-0.1,2.4-0.4,3.5c-0.6,2.2-1.8,4.4-3.7,6.6c-1.6,1.9-3.9,4.3-7.1,7.3c-1.2,1.1-2.9,2.8-5.2,5l0.1,0.4h5.2c1.5,0,2.9,0,4.3-0.1
	l5.1-0.1c1.3,0,2.4-0.1,3.4-0.2L69.1,132z"/>
<path class="st0" d="M69.1,236c-0.2,2.3-0.3,4.5-0.1,6.5l-0.4,0.4c-5.4-0.2-9.8-0.3-13.2-0.3c-3.6,0-7.8,0.1-12.7,0.3l-0.4-0.4v-2.7
	l6-6.1c4.5-4.6,7.4-8,8.8-10.4c0.8-1.4,1.4-2.7,1.7-3.8c0.3-1.1,0.5-2.4,0.5-3.6c0-4.7-2.1-7-6.4-7c-2.4,0-4.3,0.9-5.7,2.7
	c-0.2,0.8-0.6,2.3-1.1,4.4l-0.3,0.3h-1.7l-0.3-0.3l1.1-9.8c2.5-2.5,5.9-3.7,10.3-3.7c3.9,0,7,1,9.1,3.1c2,1.9,3,4.4,3,7.5
	c0,1.3-0.1,2.4-0.4,3.5c-0.6,2.2-1.8,4.4-3.7,6.6c-1.6,1.9-3.9,4.3-7.1,7.3c-1.2,1.1-2.9,2.8-5.2,5l0.1,0.4h5.2c1.5,0,2.9,0,4.3-0.1
	l5.1-0.1c1.3,0,2.4-0.1,3.4-0.2L69.1,236z"/>
<path class="st0" d="M0.4,175.1L0.4,175.1c1.4,0,2.4,0,2.9,0l5.5-0.1c1.6,0,2.8,0.1,3.8,0.4s1.9,0.8,2.7,1.5s1.4,1.6,1.8,2.5
	s0.6,2,0.6,3.1c0,1.1-0.2,2.1-0.6,3.1s-0.9,2-1.6,2.8s-1.4,1.5-2.3,2s-1.7,0.8-2.6,1s-1.8,0.3-2.7,0.3c-0.6,0-1.8,0-3.4-0.1
	c-0.6,0-0.9,0-1.1,0c-0.5,0-1.2,0-2,0.1l-0.1-0.1v-0.4l0.1-0.1c0.5-0.2,0.7-0.4,0.8-0.4s0.1-0.7,0.2-2.1s0.1-2.3,0.1-3v-4.3l0-2.7
	c0-0.6,0-1,0-1.4s0-0.6-0.1-0.8s-0.1-0.3-0.1-0.3S2,176,1.9,176s-0.3-0.1-0.6-0.1l-0.9-0.1l-0.1-0.1V175.1z M4.7,190.4
	c0.8,0.2,1.7,0.2,2.8,0.2c1.8,0,3.3-0.3,4.4-0.9s1.9-1.5,2.4-2.7s0.8-2.5,0.8-4c0-2.2-0.6-3.9-1.8-5.1s-3-1.8-5.6-1.8
	c-1,0-2.1,0.1-3,0.2c-0.1,1.3-0.1,2.7-0.1,4.3v3.7l0,3.4C4.6,188.4,4.6,189.3,4.7,190.4z"/>
<path class="st0" d="M19.3,175.1l1.5,0c1,0,1.6,0,1.9,0c0.3,0,1.4,0,3.4-0.1l0.1,0.1v0.6l-0.1,0.1c-0.5,0-1,0-1.2,0.1
	s-0.5,0.1-0.6,0.2s-0.2,0.3-0.3,0.6s-0.1,0.8-0.1,1.3l0,2.7v5.4l0,2.3c0,0.9,0,1.5,0.1,1.7s0.1,0.4,0.2,0.5s0.2,0.2,0.4,0.2
	s0.7,0.1,1.6,0.1l0.1,0.1v0.6l-0.1,0.1c0,0-0.7,0-2.1-0.1c-0.6,0-1,0-1.3,0c-0.2,0-1.4,0-3.4,0.1l-0.1-0.1V191l0.1-0.1
	c0.7,0,1.2-0.1,1.5-0.1s0.4-0.1,0.5-0.2s0.1-0.2,0.2-0.5s0.1-0.8,0.1-1.6l0-2.5v-5.4l0-2.3c0-0.9,0-1.5-0.1-1.7s-0.1-0.4-0.2-0.5
	s-0.2-0.2-0.4-0.2s-0.7-0.1-1.6-0.1l-0.1-0.1L19.3,175.1L19.3,175.1z"/>
<path class="st0" d="M34.7,191.8c-0.1-0.3-0.6-1.7-1.5-3.9l-4-9.9c-0.5-1.1-0.7-1.8-0.9-1.9s-0.6-0.3-1.4-0.3l-0.1-0.1v-0.5l0.1-0.1
	c1.2,0.1,2.2,0.1,3,0.1c0.8,0,1.8,0,3.1-0.1l0.1,0.1v0.6l-0.1,0.1c-0.9,0-1.5,0-1.7,0.1s-0.3,0.2-0.3,0.3c0,0.1,0.1,0.5,0.4,1.2
	s0.5,1.4,0.7,1.9l3.7,9.3L39,181c0.2-0.5,0.5-1.4,0.9-2.5s0.6-1.9,0.6-2.1c0-0.2-0.1-0.3-0.3-0.4s-0.8-0.1-1.7-0.2l-0.1-0.1v-0.6
	l0.1-0.1c1.4,0.1,2.2,0.1,2.6,0.1c0.3,0,1.1,0,2.4-0.1l0.1,0.1v0.6l-0.1,0.1c-0.6,0-0.9,0.1-1,0.1s-0.2,0.2-0.3,0.4
	s-0.4,0.8-0.8,1.9l-3.7,9c-0.8,2-1.4,3.6-1.7,4.7H34.7z"/>
<path class="st0" d="M44.7,175.1l1.5,0c1,0,1.6,0,1.9,0c0.3,0,1.4,0,3.4-0.1l0.1,0.1v0.6l-0.1,0.1c-0.5,0-1,0-1.2,0.1
	s-0.5,0.1-0.6,0.2s-0.2,0.3-0.3,0.6s-0.1,0.8-0.1,1.3l0,2.7v5.4l0,2.3c0,0.9,0,1.5,0.1,1.7s0.1,0.4,0.2,0.5s0.2,0.2,0.4,0.2
	s0.7,0.1,1.6,0.1l0.1,0.1v0.6l-0.1,0.1c0,0-0.7,0-2.1-0.1c-0.6,0-1,0-1.3,0c-0.2,0-1.4,0-3.4,0.1l-0.1-0.1V191l0.1-0.1
	c0.7,0,1.2-0.1,1.5-0.1s0.4-0.1,0.5-0.2s0.1-0.2,0.2-0.5s0.1-0.8,0.1-1.6l0-2.5v-5.4l0-2.3c0-0.9,0-1.5-0.1-1.7s-0.1-0.4-0.2-0.5
	s-0.2-0.2-0.4-0.2s-0.7-0.1-1.6-0.1l-0.1-0.1L44.7,175.1L44.7,175.1z"/>
<path class="st0" d="M53,187.6L53,187.6l0.7-0.1l0.1,0.1c0,1,0.1,1.6,0.2,1.8s0.3,0.5,0.6,0.7s0.8,0.4,1.4,0.6s1.2,0.2,1.8,0.2
	c0.8,0,1.6-0.2,2.2-0.5s1.2-0.8,1.5-1.3s0.6-1.3,0.6-2c0-0.5-0.1-1-0.3-1.3s-0.4-0.7-0.7-0.9s-0.7-0.4-1.1-0.5s-1-0.2-1.8-0.4
	c-0.8-0.1-1.4-0.2-1.8-0.3s-0.9-0.3-1.3-0.5s-0.8-0.5-1.1-0.8s-0.5-0.7-0.7-1.2s-0.3-1-0.3-1.5c0-1.5,0.5-2.7,1.5-3.6
	s2.4-1.4,4.1-1.4c0.7,0,1.4,0.1,2.2,0.3s1.5,0.4,2.2,0.7l0.1,0.1c-0.2,0.7-0.3,1.7-0.3,3.1l-0.1,0.1H62l-0.1-0.1
	c0-0.9,0-1.5-0.1-1.8s-0.4-0.5-1.1-0.9s-1.4-0.5-2.2-0.5c-0.7,0-1.3,0.1-1.9,0.4s-1,0.7-1.3,1.3s-0.4,1.2-0.4,1.7
	c0,0.5,0.1,0.9,0.3,1.2s0.4,0.6,0.7,0.8s0.6,0.4,1,0.5s1.1,0.2,2.1,0.4c1.4,0.2,2.4,0.4,3,0.7s1.1,0.7,1.5,1.3s0.6,1.3,0.6,2.2
	c0,1.7-0.7,3.1-2,4.2s-3,1.7-4.9,1.7c-1.6,0-3-0.3-4.3-0.9l-0.1-0.2C52.9,190.5,53,189.4,53,187.6z"/>
<path class="st0" d="M65.4,175.1l1.5,0c1,0,1.6,0,1.9,0c0.3,0,1.4,0,3.4-0.1l0.1,0.1v0.6l-0.1,0.1c-0.5,0-1,0-1.2,0.1
	s-0.5,0.1-0.6,0.2s-0.2,0.3-0.3,0.6s-0.1,0.8-0.1,1.3l0,2.7v5.4l0,2.3c0,0.9,0,1.5,0.1,1.7s0.1,0.4,0.2,0.5s0.2,0.2,0.4,0.2
	s0.7,0.1,1.6,0.1l0.1,0.1v0.6l-0.1,0.1c0,0-0.7,0-2.1-0.1c-0.6,0-1,0-1.3,0c-0.2,0-1.4,0-3.4,0.1l-0.1-0.1V191l0.1-0.1
	c0.7,0,1.2-0.1,1.5-0.1s0.4-0.1,0.5-0.2s0.1-0.2,0.2-0.5s0.1-0.8,0.1-1.6l0-2.5v-5.4l0-2.3c0-0.9,0-1.5-0.1-1.7s-0.1-0.4-0.2-0.5
	s-0.2-0.2-0.4-0.2s-0.7-0.1-1.6-0.1l-0.1-0.1L65.4,175.1L65.4,175.1z"/>
<path class="st0" d="M73.3,183.5c0-1.2,0.2-2.3,0.5-3.3s0.9-2,1.7-2.8s1.8-1.5,2.9-2s2.4-0.7,3.9-0.7c2.7,0,4.8,0.7,6.4,2.2
	s2.4,3.4,2.4,5.9c0,1.8-0.4,3.4-1.2,4.8s-1.9,2.5-3.3,3.3s-3.1,1.2-4.9,1.2c-1.3,0-2.4-0.2-3.5-0.6s-2-1.1-2.7-1.9s-1.3-1.8-1.6-2.9
	S73.3,184.5,73.3,183.5z M75.8,182.8c0,1,0.2,2,0.5,3.1s0.8,2,1.4,2.8s1.3,1.4,2.1,1.8s1.7,0.6,2.7,0.6c1.2,0,2.3-0.3,3.2-0.8
	s1.7-1.4,2.2-2.6s0.7-2.5,0.7-3.9c0-1.6-0.3-3-0.8-4.3s-1.4-2.2-2.4-2.8s-2.2-0.9-3.5-0.9c-1.9,0-3.4,0.6-4.5,1.8
	S75.8,180.4,75.8,182.8z"/>
<path class="st0" d="M92.4,191.7l-0.1-0.1V191l0.1-0.1c0.5,0,0.9,0,1.1-0.1s0.5-0.1,0.6-0.2s0.1-0.3,0.2-0.5s0.1-0.8,0.1-1.6
	s0-1.5,0-1.8v-9.5c0-0.4-0.1-0.7-0.2-0.9s-0.3-0.3-0.6-0.4s-0.7-0.1-1.3-0.1l-0.1-0.1v-0.6l0.1-0.1c1.1,0,1.8,0.1,2.1,0.1
	c0.8,0,1.4,0,1.9-0.1l3.7,4.9l5.5,6.9c0.7,0.8,1.3,1.6,2,2.4v-9.1c0-0.3,0-0.9,0-1.8s-0.1-1.5-0.1-1.7s-0.1-0.4-0.2-0.5
	s-0.3-0.2-0.6-0.2s-0.6-0.1-1.1-0.1l-0.1-0.1v-0.5l0.1-0.1c0.6,0,1.5,0.1,2.7,0.1c1.1,0,1.8,0,2.3-0.1l0.1,0.1v0.5l-0.1,0.1
	c-0.5,0-0.9,0-1.2,0.1s-0.5,0.1-0.5,0.3s-0.1,0.3-0.1,0.5s-0.1,0.8-0.1,1.6s0,1.5,0,1.8v5.6l0,3.2c0,1.1,0,2.1,0,3.2
	c-0.4-0.1-1.1-0.3-2-0.5l-0.8-1l-2.5-3l-7.9-9.9v9c0,0.4,0,1,0,1.9s0.1,1.5,0.1,1.7s0.1,0.3,0.2,0.4s0.2,0.1,0.4,0.2
	s0.6,0.1,1.3,0.1l0.1,0.1v0.6l-0.1,0.1c-0.4-0.1-1.1-0.1-2-0.1C94.3,191.6,93.3,191.6,92.4,191.7z"/>
<circle class="st1" cx="55.8" cy="25" r="25"/>
</svg>
