<?xml version="1.0" encoding="utf-8"?>
<!-- Generator: Adobe Illustrator 22.0.0, SVG Export Plug-In . SVG Version: 6.00 Build 0)  -->
<svg version="1.1" id="Layer_1" xmlns="http://www.w3.org/2000/svg" xmlns:xlink="http://www.w3.org/1999/xlink" x="0px" y="0px"
	 width="112px" height="250.5px" viewBox="0 0 112 250.5" style="enable-background:new 0 0 112 250.5;" xml:space="preserve">
<style type="text/css">
	.st0{fill:#FFFFFF;}
	.st1{fill:#9478B5;}
</style>
<path class="st0" d="M17.8,82.8v0.3l0,0.1l-0.5,0.3c-0.1,0.1-0.2,0.1-0.2,0.2s0,0.3-0.1,0.6c0,0.4,0,0.9,0,1.4c0,0.6,0,1.3,0.1,2
	L17,87.9c-2,0.8-4,1.1-6,1.1c-1.6,0-3-0.3-4.3-0.9c-1.3-0.6-2.3-1.5-3.1-2.7s-1.1-2.6-1.1-4.2c0-2.5,0.8-4.4,2.5-5.9
	c1.7-1.5,3.9-2.2,6.6-2.2c2,0,3.8,0.3,5.4,1l0.1,0.1c-0.1,0.5-0.3,1.5-0.5,3l-0.1,0.1h-0.5L16,77.3l-0.1-1.1c0-0.4,0-0.6-0.1-0.7
	c0-0.1-0.1-0.1-0.2-0.3c-0.1-0.1-0.5-0.3-1-0.5c-0.5-0.2-1.1-0.4-1.6-0.5c-0.5-0.1-1.1-0.2-1.7-0.2c-1.3,0-2.5,0.3-3.5,0.8
	c-1,0.5-1.8,1.3-2.3,2.4c-0.5,1-0.8,2.2-0.8,3.5c0,1.3,0.3,2.5,0.8,3.7c0.6,1.1,1.3,2,2.4,2.7c1,0.6,2.2,1,3.6,1
	c0.6,0,1.2-0.1,1.8-0.2c0.6-0.1,1.1-0.3,1.5-0.5C15,87.1,15,86.7,15,86v-1.2c0-0.6,0-0.9-0.1-1.1c-0.1-0.1-0.2-0.2-0.5-0.3
	c-0.3-0.1-0.9-0.1-1.8-0.1l-0.1-0.1v-0.5l0.1-0.1l0.7,0c1.1,0,2,0.1,2.8,0.1c0.4,0,1,0,1.8-0.1L17.8,82.8z"/>
<path class="st0" d="M19.3,73.5L19.3,73.5c2.5,0,4.1,0,4.8,0c2.3,0,4.4,0,6.3-0.1l0.1,0.1c-0.2,0.7-0.3,1.8-0.4,3.2L30,76.8h-0.5
	l-0.1-0.1c0-0.1,0-0.1,0-0.2c0-0.6,0-1.2-0.1-1.7c-0.5-0.2-1.1-0.3-1.9-0.4c-0.8-0.1-1.4-0.1-1.8-0.1c-0.6,0-1.3,0-2.2,0.1l0,1.7
	l0,2l0,2.2c0.8,0,1.5,0.1,2.1,0.1c0.7,0,1.2,0,1.7-0.1c0.4,0,0.7-0.1,0.8-0.1c0.1,0,0.1-0.1,0.2-0.3c0-0.1,0.1-0.4,0.1-0.7l0-0.7
	l0.1-0.1h0.5l0.1,0.1c0,0.8,0,1.6-0.1,2.4l0.1,2.4l-0.1,0.1h-0.5l-0.1-0.1l-0.1-0.6C28,82.2,28,81.9,28,81.8c0-0.1-0.1-0.2-0.2-0.3
	c-0.1-0.1-0.4-0.1-0.8-0.2s-1-0.1-1.8-0.1c-0.4,0-1,0-1.9,0.1c0,0.6-0.1,1.6-0.1,3c0,1.5,0,2.6,0.1,3.3h2c1.7,0,2.8,0,3.3-0.1
	c0.4,0,0.9-0.1,1.2-0.3c0.1-0.2,0.2-0.5,0.3-1.1c0.1-0.6,0.2-1,0.3-1.1l0.1-0.1H31l0.1,0.1c-0.1,0.3-0.1,0.8-0.2,1.6
	c-0.1,0.8-0.1,1.4-0.1,2l-0.1,0.1c-1.4,0-3.2-0.1-5.4-0.1l-2.9,0c-0.7,0-1.4,0-2.1,0.1l-0.1-0.1v-0.4l0.1-0.1
	c0.4-0.2,0.7-0.3,0.7-0.4c0.1-0.1,0.1-0.7,0.2-1.9c0-1.2,0.1-2.1,0.1-2.7v-3.9l0-2.4c0-0.5,0-1,0-1.3c0-0.3,0-0.6-0.1-0.7
	c0-0.1-0.1-0.2-0.1-0.3c0-0.1-0.1-0.1-0.2-0.1c-0.1,0-0.3-0.1-0.5-0.1l-0.8-0.1L19.3,74V73.5z"/>
<path class="st0" d="M32.7,88.7L32.7,88.7l-0.1-0.6l0.1-0.1c0.4,0,0.8,0,1-0.1c0.3,0,0.4-0.1,0.5-0.2c0.1-0.1,0.1-0.3,0.2-0.5
	c0-0.2,0-0.7,0.1-1.5c0-0.8,0-1.3,0-1.7v-8.7c0-0.4-0.1-0.6-0.2-0.8c-0.1-0.2-0.3-0.3-0.5-0.3c-0.2,0-0.6-0.1-1.2-0.1l-0.1-0.1v-0.5
	l0.1-0.1c1,0,1.6,0.1,1.9,0.1c0.7,0,1.3,0,1.8-0.1l3.4,4.4l5,6.3c0.6,0.8,1.2,1.5,1.9,2.2v-8.3c0-0.3,0-0.8,0-1.6
	c0-0.8-0.1-1.4-0.1-1.6c0-0.2-0.1-0.4-0.2-0.5c-0.1-0.1-0.3-0.1-0.5-0.2c-0.2,0-0.6-0.1-1-0.1l-0.1-0.1v-0.5l0.1-0.1
	c0.6,0,1.4,0.1,2.5,0.1c1,0,1.7,0,2.1-0.1l0.1,0.1v0.5l-0.1,0.1c-0.5,0-0.8,0-1.1,0.1c-0.3,0-0.4,0.1-0.5,0.2s-0.1,0.3-0.1,0.5
	c0,0.2-0.1,0.7-0.1,1.5c0,0.8,0,1.3,0,1.7v5.1l0,3c0,1,0,1.9,0,2.9c-0.4-0.1-1-0.3-1.9-0.5l-0.8-0.9l-2.3-2.8l-7.3-9.1v8.2
	c0,0.3,0,0.9,0,1.8c0,0.8,0.1,1.4,0.1,1.5c0,0.2,0.1,0.3,0.1,0.4c0.1,0.1,0.2,0.1,0.4,0.2c0.2,0.1,0.6,0.1,1.2,0.1l0.1,0.1v0.5
	l-0.1,0.1c-0.4-0.1-1-0.1-1.8-0.1C34.4,88.6,33.5,88.6,32.7,88.7z"/>
<path class="st0" d="M51,73.5L51,73.5c2.5,0,4.1,0,4.8,0c2.3,0,4.4,0,6.3-0.1l0.1,0.1c-0.2,0.7-0.3,1.8-0.4,3.2l-0.1,0.1h-0.5
	l-0.1-0.1c0-0.1,0-0.1,0-0.2c0-0.6,0-1.2-0.1-1.7c-0.5-0.2-1.1-0.3-1.9-0.4c-0.8-0.1-1.4-0.1-1.8-0.1c-0.6,0-1.3,0-2.2,0.1l0,1.7
	l0,2l0,2.2c0.8,0,1.5,0.1,2.1,0.1c0.7,0,1.2,0,1.7-0.1c0.4,0,0.7-0.1,0.8-0.1c0.1,0,0.1-0.1,0.2-0.3c0-0.1,0.1-0.4,0.1-0.7l0-0.7
	l0.1-0.1h0.5l0.1,0.1c0,0.8,0,1.6-0.1,2.4l0.1,2.4l-0.1,0.1H60l-0.1-0.1l-0.1-0.6c-0.1-0.5-0.1-0.8-0.1-0.9c0-0.1-0.1-0.2-0.2-0.3
	c-0.1-0.1-0.4-0.1-0.8-0.2s-1-0.1-1.8-0.1c-0.4,0-1,0-1.9,0.1c0,0.6-0.1,1.6-0.1,3c0,1.5,0,2.6,0.1,3.3h2c1.7,0,2.8,0,3.3-0.1
	c0.4,0,0.9-0.1,1.2-0.3c0.1-0.2,0.2-0.5,0.3-1.1c0.1-0.6,0.2-1,0.3-1.1l0.1-0.1h0.5l0.1,0.1c-0.1,0.3-0.1,0.8-0.2,1.6
	c-0.1,0.8-0.1,1.4-0.1,2l-0.1,0.1c-1.4,0-3.2-0.1-5.4-0.1l-2.9,0c-0.7,0-1.4,0-2.1,0.1l-0.1-0.1v-0.4l0.1-0.1
	c0.4-0.2,0.7-0.3,0.7-0.4c0.1-0.1,0.1-0.7,0.2-1.9c0-1.2,0.1-2.1,0.1-2.7v-3.9l0-2.4c0-0.5,0-1,0-1.3c0-0.3,0-0.6-0.1-0.7
	c0-0.1-0.1-0.2-0.1-0.3c0-0.1-0.1-0.1-0.2-0.1c-0.1,0-0.3-0.1-0.5-0.1l-0.8-0.1L51,74V73.5z"/>
<path class="st0" d="M64.2,73.5L64.2,73.5c1.4,0,2.4,0,3.1,0c0.8,0,1.9,0,3.3-0.1c0.5,0,0.9,0,1.1,0c1.8,0,3,0.3,3.7,1
	c0.6,0.7,1,1.4,1,2.3c0,0.6-0.2,1.2-0.5,1.8c-0.3,0.6-0.8,1.1-1.4,1.5c-0.6,0.4-1.5,0.7-2.5,0.9c0.2,0.3,0.6,0.8,1.1,1.5l1.5,2
	c0.5,0.7,1,1.4,1.6,2.1c0.6,0.7,0.9,1.2,1.1,1.3c0.2,0.1,0.3,0.2,0.4,0.2s0.3,0,0.6,0l0.1,0.1v0.5l-0.1,0.1c-0.3,0-0.8-0.1-1.2-0.1
	c-0.5,0-1.1,0-1.7,0.1C74.8,88.1,74,87,73,85.6c-1.2-1.7-2.5-3.3-3.8-4.8l0.1-0.3c0.4,0,0.7,0,0.9,0c1.2,0,2.2-0.3,2.9-0.9
	c0.7-0.6,1.1-1.4,1.1-2.5c0-0.9-0.3-1.7-0.9-2.1c-0.6-0.5-1.5-0.7-2.6-0.7c-0.8,0-1.5,0.1-2.1,0.3c-0.1,0.2-0.2,1.5-0.2,4v5l0,2.1
	c0,0.8,0,1.3,0.1,1.6c0,0.2,0.1,0.4,0.2,0.5c0.1,0.1,0.2,0.1,0.4,0.2s0.7,0.1,1.4,0.1l0.1,0.1v0.5l-0.1,0.1c0,0-0.7,0-1.9-0.1
	c-0.5,0-0.9,0-1.2,0c-0.2,0-1.2,0-3.1,0.1l-0.1-0.1v-0.5l0.1-0.1c0.7,0,1.1-0.1,1.3-0.1c0.2,0,0.4-0.1,0.4-0.2
	c0.1-0.1,0.1-0.2,0.2-0.4c0-0.2,0.1-0.7,0.1-1.5l0-2.3v-5l0-2.1c0-0.8,0-1.3-0.1-1.6s-0.1-0.4-0.2-0.5c-0.1-0.1-0.2-0.1-0.4-0.2
	c-0.2,0-0.7-0.1-1.4-0.1L64.2,74V73.5z"/>
<path class="st0" d="M78.9,88.7L78.9,88.7l-0.1-0.6l0.1-0.1c0.5,0,0.9,0,1-0.1c0.2,0,0.3-0.1,0.4-0.3s0.4-0.6,0.7-1.4l1.1-2.4
	l2.9-6.6c0.6-1.3,1.1-2.6,1.6-3.9h0.7L92,84.1l0.6,1.4c0.2,0.4,0.4,0.9,0.6,1.3c0.2,0.5,0.4,0.8,0.5,0.8c0.1,0.1,0.2,0.2,0.3,0.2
	c0.1,0,0.4,0.1,0.9,0.1l0.1,0.1v0.6l-0.1,0.1c-0.8-0.1-1.4-0.1-2.1-0.1c-1.2,0-2.4,0.1-3.6,0.1l-0.1-0.1v-0.6l0.1-0.1
	c0.8,0,1.3,0,1.5-0.1c0.2-0.1,0.3-0.2,0.3-0.4c0-0.2-0.1-0.4-0.2-0.6l-1.3-3.3h-6.2l-1.2,2.8c-0.2,0.5-0.3,0.9-0.3,1.1
	c0,0.2,0.1,0.3,0.3,0.4s0.7,0.1,1.5,0.1l0.1,0.1v0.6l-0.1,0.1c-0.9-0.1-1.7-0.1-2.4-0.1C80.5,88.6,79.7,88.6,78.9,88.7z M83.8,82.7
	h5.4l-2.7-6.5L83.8,82.7z"/>
<path class="st0" d="M95.9,73.5L95.9,73.5c1.9,0,2.9,0,3.2,0c0.2,0,1.3,0,3.1-0.1l0.1,0.1V74l-0.1,0.1c-0.5,0-0.9,0-1.1,0.1
	c-0.3,0-0.5,0.1-0.6,0.2c-0.1,0.1-0.2,0.3-0.2,0.6c0,0.3-0.1,0.7-0.1,1.2l0,2.5v4.7c0,1.2,0,2,0,2.5l0.1,1.9h2.2
	c1.7,0,2.8,0,3.3-0.1c0.4,0,0.9-0.1,1.3-0.3c0.1-0.2,0.2-0.6,0.3-1.2c0.1-0.6,0.2-1,0.2-1.1l0.1-0.1h0.5l0.1,0.1
	c-0.1,0.3-0.1,0.8-0.2,1.7c-0.1,0.8-0.1,1.5-0.1,2l-0.1,0.1c-1.4,0-3.1-0.1-5.4-0.1l-3.1,0c-0.7,0-1.4,0-2.2,0.1L97,88.6v-0.4
	l0.1-0.1c0.4-0.2,0.7-0.4,0.7-0.4c0,0,0.1-0.5,0.1-1.4c0-0.9,0.1-1.9,0.1-3.2v-4.6l0-2.1c0-0.8,0-1.3-0.1-1.6s-0.1-0.4-0.2-0.5
	c-0.1-0.1-0.2-0.1-0.4-0.2c-0.2,0-0.7-0.1-1.4-0.1L95.9,74V73.5z"/>
<circle class="st1" cx="55.4" cy="25" r="25"/>
</svg>
