<?xml version="1.0" encoding="utf-8"?>
<!-- Generator: Adobe Illustrator 22.0.0, SVG Export Plug-In . SVG Version: 6.00 Build 0)  -->
<svg version="1.1" id="Layer_1" xmlns="http://www.w3.org/2000/svg" xmlns:xlink="http://www.w3.org/1999/xlink" x="0px" y="0px"
	 width="595.3px" height="841.9px" viewBox="0 0 595.3 841.9" style="enable-background:new 0 0 595.3 841.9;" xml:space="preserve"
	>
<style type="text/css">
	.st0{fill:#FFFFFF;}
</style>
<g>
	<g id="LWPOLYLINE_1_">
		<polygon class="st0" points="263,0.6 263.6,1.1 263.2,5.6 264.1,12 262.8,12.3 259.5,12.5 259.8,16.9 261.1,17 261.2,19.2 
			260.3,19.4 260.3,19.8 277.4,20.1 277.6,37.6 277.5,65.5 282.1,65.7 282.2,68.9 282.8,69 282.8,74.3 297.5,73.8 297.9,87.5 
			377.8,86 378.3,106.3 416.8,105.2 417.3,105.7 417.6,118.3 419.6,118.3 419.6,119.4 416.9,119.6 417.4,126 413.6,126.1 
			413.5,122.3 412.3,122.4 412.1,123.2 406.1,123.5 407.4,133.2 405.5,133.3 405.8,144.1 408.7,144.5 408.8,149.4 409.2,149.9 
			411.5,149.9 411.4,151.1 413.5,151.2 413.5,153.6 414.1,153.6 413.7,155.7 414.8,155.8 414.9,157.2 418.9,157.3 419,157.9 
			421.1,157.9 421.2,159.8 419.2,159.7 419.3,160.8 415.2,160.8 415.4,166.4 413.1,166.4 412.9,161.2 407.3,161.4 407.2,165.7 
			409.8,166.9 414.3,167.1 414.6,173.4 435.8,173.4 440.4,174.1 442.2,175.1 443,176.3 443.5,179.7 456.7,179.7 456.8,175.4 
			455.2,175.1 453.8,170.2 455.5,169 452.1,158.2 454,158.1 454.3,158.9 477.7,158.2 479.2,158.7 479.4,160.6 481,160.9 
			481.1,164.9 479.8,165.1 480.5,178.1 484.5,178 484.7,179.2 489.3,178.6 490.1,179.7 489.5,182.5 488.7,187.1 494.1,183 
			498.2,185.7 494.4,186.4 493.9,190.8 492.4,190.9 491.9,197.2 489.1,197.1 489.5,199.4 487.6,200.1 482.3,199.9 482.6,198 
			480.5,197.4 481.4,196.5 479.8,195.3 475.9,199.4 487.2,207.3 497.6,210.5 500.6,210.3 504.8,205.9 511.6,202.3 514.2,201.8 
			531.6,202.2 534.7,202.8 539,209.9 532.9,226.9 529.9,229.7 521.8,233.7 519.1,238.3 519.6,253.8 517.6,258.5 513.7,266.6 
			513.3,329.2 494,329.4 493.9,328.8 488.7,328.8 488.2,321.5 483.1,321.5 479.1,322.9 479,330 476.7,330.2 476.7,329 468.7,328.9 
			468.5,327 466.4,326.8 466.2,323.8 463.8,323.9 464.5,330.7 458.6,330.7 458.4,331.3 456.5,331.2 456.7,329.3 453.3,329.4 
			453.3,328.8 444.8,328.9 448.4,410.2 449.4,434 450.5,440.6 454.5,457.5 454.6,461.2 455.3,473.9 456.6,493.3 457.3,497.1 
			459.4,512.6 460.1,518 458.7,523.5 464.6,523.4 465.7,520.4 467.4,519 469.6,518.4 487.3,517.8 498.8,515.1 513.3,514 
			535.9,514.1 547.9,513.7 549,516.8 550.6,522.2 551.8,529.5 542.9,529.1 537.9,529.4 528.9,530.9 528.5,531.5 528.9,536.8 
			535.5,536.9 535.4,542.5 536.4,563.1 537.6,578.6 540.9,578.9 541.5,581.5 543.8,581.6 543.6,582.6 560.2,582.9 560.2,594.6 
			564.3,595.4 565.1,598 564.7,608.6 559.8,608.6 558.5,607.5 558.5,606.8 554.3,605.8 546.7,605.7 545.5,603.8 537.9,603.9 
			537.2,602.9 535.1,601.9 535,601.2 528.9,601.3 529.1,608.9 515.9,610 526,674.6 527.6,684.8 527.6,693.3 521.6,705.4 
			517.5,713.9 514.3,728.1 512.3,735.7 511.3,738.5 508.4,741.1 505.6,741.6 433.1,738.4 398.3,736.2 376.6,735.1 351,734.4 
			350.6,739.4 338.2,741.8 315.3,744.6 323.2,747.9 316.6,749.6 294.2,751 295,757.2 309.5,756.7 309.9,758.1 304,758 304.1,759.7 
			305.4,760.1 306,776.6 309.7,776.5 309.8,777.4 315.8,777.4 316,779 317.1,779 317.4,788.4 311.8,788.3 311.7,789.3 309.8,789.5 
			310.6,800.7 310,801.9 310.1,803.5 307.3,803.5 307,803 304.1,802.8 304.3,802 300.2,802 300.1,798.9 296.5,798.9 297,814.7 
			295.3,814.8 295.6,820.3 293.5,820.6 293.7,826.4 276.2,827.1 276.3,834.7 253.9,834.7 246,828.5 244.9,827.2 226.7,829.1 
			200.6,829.6 200.3,837.7 200.2,841.8 195.6,841.9 195.5,837.4 188.2,837.3 163.4,837.2 163.2,816.8 160.1,814 159.4,807.4 
			155.1,807.2 154.7,810.3 145.8,810 145.7,799.9 132.4,800 132.2,789.6 131.1,789 106.4,789.5 108.3,781 108.5,775.7 107.2,775.7 
			106.6,775.4 92.5,780.5 91.3,778.8 85.6,780.3 86.3,781.2 83.6,781.7 62,782.8 60.9,780.2 59.2,778.6 54.3,776.4 48.5,775.8 
			40.9,777.4 40.7,775 41.6,774.9 41.6,774.2 40.1,774.4 40.1,773.2 47.7,773.1 47.9,770.1 59.6,769 59.3,764.5 60,764.5 
			60.6,761.8 62.4,761.6 61.7,755.8 60.2,755.7 59.8,746.2 126.8,741.7 190.1,739.1 187.3,680.2 177.1,680.6 176.9,675.6 
			184.3,675.3 184.4,674.8 186.8,674.4 186.3,661.9 184,605.2 184,601.9 182.2,601.8 181.5,574.4 180.5,550.6 180.4,547.8 
			179.7,547.2 178.9,546 173.5,544.2 171.3,543.5 168.9,541.8 167.6,540.2 167.4,536.2 166.2,536 166.1,533.8 163.5,478.5 
			157.4,478.7 142.8,479.3 142.3,476.2 144,474.3 142,459.9 136.3,459.8 135.8,452.2 136.8,452.3 136.7,451.3 137.3,451.4 
			137.4,450 138.1,449.9 137.8,447.7 138.4,447.6 138.3,443.6 144.2,443.3 143.8,439.1 140.7,375.4 163,374.4 163,373.5 
			172.7,372.9 172.7,369.2 172.6,367.5 180.7,367.2 192.3,366.6 192.6,363.2 193.4,363.2 191.7,331.2 189.4,331.2 176.4,331.1 
			176.5,327.8 177.7,327.8 177.4,326.3 182.3,326 182.2,324.8 181.5,324.8 181.5,323.1 175.7,323 175.6,320.2 176,320 175.5,316.4 
			172.8,316.1 172.2,300.2 173.8,299.7 173.7,299.3 172.3,299.4 172.4,296.7 170.9,296.3 170.8,294.5 170.2,294.5 170.1,292.6 
			171.5,292.7 171.6,290.9 173,290.9 173,289.7 174.5,289.4 173.8,285.8 175.5,285.8 175.4,284.4 173.6,284.2 173.8,282.2 
			176.4,282 176.3,280.8 174.4,280.8 174.3,278 171.3,277.9 170.9,272.3 170.4,270.7 169.4,270.6 169.5,269.8 170.4,269.8 
			170.4,268.3 174.2,268.3 174.1,266.6 170.4,266.8 170.7,264.1 170.3,264.1 170.2,263.4 170.6,263.4 170.2,261.6 169.5,261 
			170.4,260.8 170.2,259.6 171.3,259.5 171.1,258.2 169.8,258.3 169.4,257.3 170.3,257.3 170,255.3 171.1,255.3 170.6,251.9 
			168.8,252.1 168.7,251.3 169.7,251.1 169.5,250 170.6,249.9 170.5,249 170,249 170,248.5 170.4,248.5 170.2,246.9 169.5,246.9 
			168.9,244.9 168.9,244.2 168.7,243.7 167.8,244.3 165,244.2 161.4,242.4 162.2,240.8 162.1,240.4 161.4,240.5 161.1,239.3 
			161.9,239.2 161.6,236.5 158.2,236.2 158.2,235.9 159.3,235.6 159.4,233.6 158.7,233.5 158.3,232.8 158.7,232.5 158.8,230.5 
			155.3,230.6 155.2,229.9 153.8,230.2 154,229.1 153.5,229.3 154,226 155.9,225.8 155.9,225.3 154.3,225 154.4,223.6 153.1,223.7 
			153.1,222.9 154.6,223.1 154.7,222.3 156.7,222.4 156.7,221.7 155.8,221.7 155.7,220 152.3,220.1 152.3,218.8 153.7,218.6 
			153.7,217.9 154.7,217.8 154.8,217 155.4,216.9 155,215.4 154.2,215.3 154.2,213.9 153,213.7 152.9,213 154,213 153.7,211.6 
			154.2,210.6 153.6,210.5 153.4,209.6 152,178.7 151,178.7 150.6,163.6 149.2,123.1 124.3,124.4 97.6,125.6 105.3,95.9 104.7,95.7 
			105.6,94.1 110.9,94.3 121,93.6 120.2,80 176.7,78.4 181.2,83.1 187.2,82.5 187.9,83.8 202,87.9 204.9,87.4 207.6,85.6 210.2,85 
			217.5,84.9 216.6,86 219.1,86.8 220.8,89.8 229.4,89.5 233.3,90.4 234.8,89.6 236.4,90.2 236.8,86.7 253.1,87.4 251.9,54.9 
			250.5,47.6 249.4,27.7 250.9,19.8 250.4,0.5 262.8,0 		"/>
	</g>
</g>
</svg>
