<?xml version="1.0" encoding="utf-8"?>
<!-- Generator: Adobe Illustrator 22.0.0, SVG Export Plug-In . SVG Version: 6.00 Build 0)  -->
<svg version="1.1" id="Layer_1" xmlns="http://www.w3.org/2000/svg" xmlns:xlink="http://www.w3.org/1999/xlink" x="0px" y="0px"
	 width="595.3px" height="841.9px" viewBox="0 0 595.3 841.9" style="enable-background:new 0 0 595.3 841.9;" xml:space="preserve"
	>
<style type="text/css">
	.st0{fill:#FFFFFF;}
</style>
<g>
	<g id="LWPOLYLINE_4_">
		<polygon class="st0" points="264.6,173.2 265.2,180.3 267.7,182.3 269.7,185.5 269.9,191.2 270.3,197.1 271,198.9 275.8,202.9 
			276.7,203.3 280.2,203.1 281.4,203 283.4,201.7 284.8,199.4 285.9,198.8 288.4,198.8 288.7,201.9 299.6,205.1 300.2,204 
			312.1,207.8 318.6,209.7 328.1,210.5 340.9,210.8 339.7,218.3 339.2,222.4 338.9,229.8 338.4,236.4 337.3,236.6 337.4,240.6 
			332.3,241.2 335.5,252.4 332.7,252.4 333.1,255.3 329.8,255.8 329.7,256.9 328.9,258.2 334.3,261.8 337,263.6 338.6,263.9 
			340.8,263.5 346.9,261.6 349.7,261.6 351.7,262.2 354.1,264.3 356.1,265.2 357,265.3 359.2,264.4 361.4,263 361.9,262.3 
			362.2,260.4 362.1,258.8 361.4,257.6 359.2,255.8 358.3,254.7 359,253.2 361.1,251 360.5,253 360.7,253.7 363.8,252.9 365.1,253 
			366.6,254.1 368.9,254.8 368.5,256.6 369.9,258.3 368.7,259.6 368.8,260.5 371.3,263.5 369.7,265.4 370.1,269 369.4,269.2 
			369.7,270.1 372.2,270.2 375,270.7 375.2,275 367.2,275.6 367.7,278.7 370.5,278.1 371.8,278.3 370.8,279.6 371.8,282.4 
			377,281.9 386.1,287.1 390.3,294.2 391.8,297.1 397.6,307.7 398.6,307.4 415.1,302.1 422.9,316.7 427,324.9 432.8,334.9 
			436.6,341.9 441,338.2 441.7,338.1 448,341.7 453.8,339.6 453.5,340.2 454,342.6 461.7,340 463.1,339 466,341.3 473.3,348.1 
			475.6,351.1 479.6,349.3 480.7,351 486.3,346.8 485.7,345.1 483.1,345.1 483,343 483.9,342.8 483.5,339.9 484.5,339.8 
			484.4,336.1 486,336 487.1,335.9 488,335.9 488.5,336.3 488.4,339.4 491.5,339.4 492.5,344.9 498.3,343.6 499.9,348.8 
			500.3,348.8 500.5,350.3 505.7,350 505.9,350.2 505.2,342.6 512.6,341.2 512.3,335.6 515.8,335.1 516.6,337.9 521,337.1 
			520.7,336.2 521.3,336 520.8,334.1 523,333.5 522.1,330.7 522.2,329.6 523,328 524.2,326.9 525.4,326.4 525.8,329.6 531.5,328.9 
			531.6,331.8 540.2,331.9 540.4,326.8 551.9,326.7 551.9,325.7 555.8,326.9 555.8,327.8 554.6,327.8 554.6,329 555.8,329.1 
			557.1,332.4 566.7,331.2 570.4,332.9 570.2,331.2 572.1,331.2 572.3,334 573.1,337.1 572.9,337.2 572.9,337.9 573.1,337.9 
			573.3,339.5 568.7,339.9 568.8,341 566.6,341.4 566.8,344.2 563.6,345 562.7,343.3 560.1,343.8 560.2,344.5 557.7,345.4 
			555.9,345.7 555,347 557.1,351.7 549.3,353.2 547.2,353.9 546.6,352.9 545.1,353 546.4,355.9 546.8,357.2 547.5,357.3 
			551.1,364.5 553.6,364 554.9,368 564.7,366.9 565.2,371.2 568.8,370.4 569.1,371.8 574.2,371.3 577.6,371.4 584.8,374.6 
			587.6,374.2 587.8,377.7 586.8,381 586.8,381.9 589.6,384.3 591.8,385.1 592.9,386.5 594,387.4 594.9,388.8 592.5,389.5 
			588.9,390.2 573.5,391.2 567.7,391.5 567.7,391.1 567.4,391.2 567.3,391.5 562.3,392.3 541.4,396.6 532.5,397.2 519.1,399.1 
			560.5,453.8 564,458.6 566.1,465.2 566.4,466.3 571.2,483.2 571.5,484.3 571.4,486 570.7,492.1 569.8,498.5 569.7,499.9 
			560.1,500 552.1,500.2 552.7,507.1 555.2,532.6 554.7,532.7 554.7,533.4 551.7,534.1 548.6,535.2 546.4,536.3 544.4,536.9 
			538.6,538.6 537.1,539.2 534.7,539.8 533,540.2 532.4,540.5 528.1,541.2 528.5,540 528.1,539.9 528.1,538.6 525.6,538.7 
			525.6,539.6 525.4,539.6 525.5,540 524.3,538.7 524,536.4 522.9,532.8 522,531.4 521,529.5 520.7,529.6 520.5,529.7 520.3,531.2 
			519.5,534.8 519.4,536.1 519.5,537.6 519.9,538.7 520.3,539.2 520.8,539.2 521.6,541.6 521.1,542.5 520.3,542.8 517.9,543.2 
			513.8,542.2 509.7,542.2 505.7,542.7 505.1,542.9 503.6,544.2 502.4,544.4 501.5,544.3 500.6,543.3 499.8,542.9 499.2,543 
			498.2,543.1 497,543.2 494.8,542.8 493.5,542.8 491.4,542.2 490.5,542.3 489.9,542.3 489.2,541.7 488,541.4 486.7,541.6 
			485.3,542.4 482.2,543 479.9,544 480.9,544.8 481.6,548 483.5,548.2 484,548.7 484.4,549.6 484.4,549.9 484.8,550.5 485.2,550.7 
			488.4,550.9 491.1,577.3 490.8,596.5 490.8,596.9 492.1,600.6 492.2,604.1 491.4,604 491.5,609 491.9,609.7 492.6,610.5 
			493.2,611 492.1,611.4 492.1,611.7 492.3,611.7 492.3,612.2 491.8,612.2 491.8,612.6 491.5,612.6 491.6,618.8 496.7,618.9 
			496.7,619.5 497.1,619.5 497.2,621.4 480.9,621.9 456.7,621.8 455.3,622.6 454.3,622.7 453.5,623.1 453.5,624.5 450.3,624.5 
			450.5,624.8 452,626.3 450.8,627.2 450.4,626.7 449,626.8 444.3,627.6 444.3,629.9 441.6,629.8 441.6,631.1 442.8,631.1 
			442.7,632.3 438.5,632.3 438.5,629.8 436.4,630.7 436.2,630.9 436.1,631.7 436.3,632.4 436.4,634.4 437.6,634.3 437.6,635.6 
			436.3,635.6 436.3,634.8 434.5,634.6 432.3,634.8 430.1,634.8 430.1,636.3 425.8,639.5 423,639.7 422.9,636.8 422.4,636.7 
			422,636.3 421.5,636.1 421.5,635.1 422.4,634.4 422.4,629.4 423,629 423,623 420.7,622.7 392.4,622.7 390.3,623.3 378.6,623.4 
			378.6,623.3 374.4,623.3 370.6,622.9 361.4,622.8 360.5,622.8 360.5,622.1 361.9,622 362.3,621.6 357.6,621.6 357.6,621.8 
			357.3,621.8 357.2,621.6 350.8,621.6 350.8,590.4 350.2,590.4 350.2,590.7 349.4,590.7 349.4,590.5 344.9,590.4 344.7,590 
			344.6,589.1 344.3,589 344.8,588.1 345.2,587.8 345.7,587.8 346.4,587 346.4,586.6 350.3,586.7 350.8,587.2 350.8,585.3 
			348.6,585.4 347.8,584.8 347.4,582.8 350.4,582.3 350.6,582 349.6,581.4 349.5,581 349.1,580.8 348.3,580.9 346.2,581.5 
			345.2,581.7 345,581 343.7,581.2 342,580.9 340.2,581.1 339,584 339,584.7 337.6,584.5 337.1,585 333.2,584.9 333.3,585.7 
			331,585.8 327.6,585.1 324.5,585.2 324.2,585.8 323.2,586 323.3,587.8 317.8,587.5 315.5,587.8 314.3,587 311.9,586.2 312.2,585 
			313.6,582.9 309.1,584.3 292.5,585.7 289.3,585.9 285.9,586.8 283.4,588.4 282.7,587.5 281.9,587.5 280.5,588 271.2,588 
			271.7,575.1 273.3,575.2 273.3,574.6 274.8,574.6 274.8,573.1 274.4,573.2 274.4,572.5 284.8,571.4 285.1,571.1 285.4,571.1 
			287.1,567.8 282.9,567.3 282.9,566.6 283.5,566.4 283.5,566 283.8,565.7 284.1,563.4 287.3,563.2 283.4,560.8 283.3,559 
			282.4,558.9 282.4,558.1 284.1,558.1 284.1,559 286.4,559.1 286.4,558.3 287.2,558.3 287.3,556.1 286.3,556.2 286.3,555.6 
			285.6,555.6 285.5,555 286.2,555 286.2,554.5 287.8,554.5 287.6,548.1 287,547.3 286.9,546.4 294,546.4 293.9,542.2 287.5,541.8 
			288.2,538.1 282.6,537.3 281.8,534.4 282.5,533.6 280.1,531.5 273.7,528.6 273.8,527.4 272.2,526.6 272.5,523.5 271.2,521.8 
			262.8,517.1 263.5,513.9 261.7,511.7 260.3,511.3 256.2,510.2 254.9,509.9 253.2,509.5 249.8,506.9 243.6,504.6 243.8,499.7 
			238.8,499.4 235.3,496.6 234.9,492.4 235.9,490.9 235.3,486.4 235.3,481.8 237.2,479.9 237,476.4 235.8,476.7 236.4,476 
			237,474.3 236.9,472.6 235.3,472.5 235.2,470.8 234.2,469.3 231.5,468.6 230.6,467.7 227.9,467.4 223.5,465.2 223.4,473 
			222.2,475.8 221.1,476 219.8,476.3 219.7,476.3 218.2,478.5 217.3,479.7 216.9,479.9 212.3,482.8 210.3,485.2 206.8,484.2 
			206.3,474 204.6,473.2 204.4,468.2 203.3,466.4 196.3,469.3 193.4,472 188,472.5 185.9,470.4 186.5,467.4 182.9,461.4 
			175.7,455.9 177.4,454.1 180.5,452.5 180.3,450.3 182.8,448.2 187.1,447.1 194.4,445.2 201.9,444.1 206.3,443.7 209.6,445.1 
			209.6,444 213.6,443.1 214.7,438.8 218.5,434 214.5,431.6 214.5,430.4 213.8,429.2 211.1,429.6 210,427.9 208.7,425.9 206,424.9 
			204,422.6 203.3,422.7 202.9,422.7 202.1,422.7 199.4,419.7 199.4,419.4 199.7,418.3 198,415.8 197,415.2 196.8,415 191.4,411.4 
			189.6,411.3 186.9,408.6 184.1,408.8 183.5,408.4 180.6,406.8 179.6,407.1 176.3,405.6 172.4,406.7 165.3,402.4 162.8,398.8 
			159.8,398.3 157.6,395.7 151.5,393.6 147.7,392.6 143.7,391.9 139.6,391.3 136.7,392.2 134.1,392.2 130.8,393.3 125.2,393.5 
			124.7,391.5 119.3,390.2 113.8,388.1 109.8,388.4 106.7,389.5 106,388.8 103.6,388.8 101.2,389.4 96.8,389.3 93.1,387.3 
			89.1,386.7 85.1,386.7 79.4,390.3 75.5,390.3 73.4,390.8 71.6,390.1 64.9,390.7 61.3,391.6 58.4,389.3 55.1,388 52.7,387.8 
			50.8,388.7 49.2,386.5 48.4,384.7 47,383.8 45,380.6 45.3,377.4 45.6,376 44.1,374.1 42.7,374 42.6,372.2 38.5,366.3 38.4,364.8 
			35.6,361.9 36.5,358.2 33.6,355.6 34,353.3 36.3,349.7 39.8,339 36,337.5 30.2,331.7 28.2,329.1 28.8,322.8 26.7,319.5 
			21.6,317.4 20.9,316.2 18.9,315.2 15.9,316.2 15.9,314.7 15.3,314 13.1,313.2 12.1,311.6 10.4,310.7 8.5,306.9 6.9,305.9 
			6.6,303.3 5.6,302.7 5.7,301.6 4.6,300.3 4.6,299.9 1.3,299.1 0.7,298.8 0.3,298.6 0,298.5 0.4,296.6 0.9,294.4 1.2,294.1 
			2.5,293.1 5.2,287 9.2,285.9 11.5,279.8 17.1,276.1 22.9,274.1 24.4,268.2 28,266.4 32.1,266.6 35.8,264.8 38,260.4 41.3,258 
			41.8,255.5 40.8,255.1 42.8,251.6 42.5,249.9 42.2,248.2 43.4,246.5 47.4,246.9 48.5,247.5 50.5,247.2 52.3,245.7 55.6,244.6 
			58,241.6 57.9,240.4 60.5,239.8 61.4,238.3 62.4,239 68.7,240.1 70.7,239.7 70.8,238.8 77.2,238.1 81.7,236.6 84.1,240.2 
			85.4,240.9 86.8,240.7 88.3,243.7 88.3,244.9 91.8,245.6 98.3,242 103,245.2 107.1,246.3 107.4,246.5 108.8,246.3 111,247.1 
			111,246.2 120.3,245.9 121.6,245.7 129.1,245.8 136,244.8 136.4,245.1 138.2,247.5 140.9,247.3 143.6,247 143.7,240.9 
			144.8,236.3 161.3,235.9 161.4,236.1 178.6,235.7 204.8,230.6 207,231.5 209.2,232.1 208.5,231.3 207.4,228.2 203.9,225.4 
			204,224.2 211.5,224.9 209.7,216.8 209.2,216.7 205.7,211.4 204.2,211.6 203.5,210.6 202.3,210.6 201.6,206.3 198.6,206.8 
			197.7,205.1 200.8,205.1 203.4,205.4 204.5,205.3 204.5,199.8 214.7,199.6 214.4,197.5 222.1,196.7 221.5,192 226.3,192.1 
			226.4,184.6 228.6,184.6 228.7,182.1 230.8,182.3 231.7,176.7 232.8,176.5 232.7,175.9 230.4,174.4 230,173.1 233.6,174.1 
			237,175.1 241.9,177.7 242.6,178.5 246.8,177 246.4,173.8 247.7,173.3 247.2,171.9 249.9,171.2 249.6,170.6 250.3,169.7 
			257,169.7 257.1,168.5 263.6,168.1 		"/>
	</g>
</g>
</svg>
