<?xml version="1.0" encoding="utf-8"?>
<!-- Generator: Adobe Illustrator 22.0.0, SVG Export Plug-In . SVG Version: 6.00 Build 0)  -->
<svg version="1.1" id="Layer_1" xmlns="http://www.w3.org/2000/svg" xmlns:xlink="http://www.w3.org/1999/xlink" x="0px" y="0px"
	 width="360.4px" height="70.5px" viewBox="0 0 360.4 70.5" style="enable-background:new 0 0 360.4 70.5;" xml:space="preserve">
<style type="text/css">
	.st0{fill:#C1292E;}
	.st1{fill:#F3D5D5;}
	.st2{fill:#921E23;}
	.st3{fill:none;stroke:#FFFFFF;stroke-width:8;stroke-miterlimit:10;}
	.st4{fill:#FFFFFF;}
	.st5{fill:none;stroke:#FFFFFF;stroke-width:2;stroke-miterlimit:10;}
</style>
<rect x="-28" y="0.1" class="st0" width="317.5" height="70.4"/>
<g>
	<path class="st1" d="M3.3,27.8c2.5,0.1,3.9,0.1,4.2,0.1c0.3,0,1.7,0,4.2-0.1l0.1,0.1v0.7l-0.1,0.1c-0.7,0-1.2,0-1.6,0.1
		c-0.4,0-0.6,0.1-0.8,0.2S9.1,29.4,9,29.8c-0.1,0.4-0.1,0.9-0.1,1.6l0,3.4v2.1C11,36.9,13.1,37,15,37c2.6,0,4.6,0,6-0.1v-2.1l0-2.9
		c0-1.1,0-1.8-0.1-2.2s-0.1-0.5-0.2-0.6s-0.3-0.2-0.5-0.3s-0.9-0.1-2-0.2L18,28.6v-0.7l0.1-0.1c2.5,0.1,3.9,0.1,4.2,0.1
		c0.3,0,1.7,0,4.2-0.1l0.1,0.1v0.7l-0.1,0.1c-0.7,0-1.2,0-1.6,0.1c-0.4,0-0.6,0.1-0.8,0.2s-0.3,0.4-0.3,0.8s-0.1,0.9-0.1,1.6l0,3.4
		v6.8l0,2.9c0,1.1,0,1.8,0.1,2.1s0.1,0.5,0.2,0.6c0.1,0.1,0.3,0.2,0.5,0.3c0.3,0.1,0.9,0.1,2,0.2l0.1,0.1v0.7l-0.1,0.1
		c-2.5-0.1-3.9-0.1-4.2-0.1c-0.3,0-1.7,0-4.2,0.1L18,48.5v-0.7l0.1-0.1c0.9,0,1.5-0.1,1.8-0.1s0.5-0.1,0.6-0.2
		c0.1-0.1,0.2-0.3,0.2-0.6s0.1-1,0.1-2l0-3.1v-3.3c-2.9-0.1-4.9-0.1-6.1-0.1c-1.2,0-3.2,0-6,0.1v3.3l0,2.9c0,1.1,0,1.8,0.1,2.1
		s0.1,0.5,0.2,0.6c0.1,0.1,0.3,0.2,0.5,0.3c0.3,0.1,0.9,0.1,1.9,0.2l0.1,0.1v0.7l-0.1,0.1c-2.5-0.1-3.9-0.1-4.2-0.1
		c-0.3,0-1.7,0-4.2,0.1l-0.1-0.1v-0.7l0.1-0.1c0.9,0,1.5-0.1,1.8-0.1s0.5-0.1,0.6-0.2C5.8,47.2,5.9,47,6,46.7s0.1-1,0.1-2l0-3.1
		v-6.8l0-2.9c0-1.1,0-1.8-0.1-2.2c0-0.3-0.1-0.5-0.2-0.6c-0.1-0.1-0.3-0.2-0.5-0.3s-0.9-0.1-1.9-0.2l-0.1-0.1v-0.7L3.3,27.8z"/>
	<path class="st1" d="M28.1,38.4c0-1.5,0.2-2.8,0.6-4.1s1.1-2.4,2.1-3.5c1-1.1,2.2-1.9,3.7-2.5s3-0.9,4.8-0.9c3.3,0,6,0.9,8,2.7
		s3,4.3,3,7.4c0,2.2-0.5,4.2-1.5,5.9s-2.4,3.1-4.2,4.1c-1.8,1-3.8,1.5-6.1,1.5c-1.6,0-3.1-0.3-4.4-0.8c-1.3-0.5-2.5-1.3-3.4-2.4
		s-1.6-2.3-2.1-3.7C28.3,40.8,28.1,39.6,28.1,38.4z M31.1,37.5c0,1.2,0.2,2.5,0.6,3.8c0.4,1.4,1,2.5,1.7,3.5c0.8,1,1.7,1.7,2.7,2.2
		c1,0.5,2.1,0.7,3.4,0.7c1.5,0,2.9-0.3,4-1s2.1-1.8,2.7-3.2c0.6-1.5,0.9-3.1,0.9-4.9c0-2-0.4-3.8-1.1-5.3s-1.7-2.7-3-3.5
		c-1.3-0.7-2.7-1.1-4.3-1.1c-2.4,0-4.2,0.7-5.6,2.2C31.8,32.4,31.1,34.6,31.1,37.5z"/>
	<path class="st1" d="M51.4,27.9l0.1-0.1c2.4,0.1,3.8,0.1,4.2,0.1c0.3,0,1.7,0,4.2-0.1l0.1,0.1v0.7l-0.1,0.1c-0.7,0-1.2,0-1.6,0.1
		c-0.4,0-0.6,0.1-0.8,0.2s-0.3,0.4-0.3,0.8s-0.1,0.9-0.1,1.6l0,3.4v4.7c0,1.5,0,2.7,0.1,3.4c0.1,0.7,0.2,1.3,0.4,1.8
		c0.2,0.5,0.5,0.9,1,1.3c0.4,0.4,1,0.6,1.8,0.9s1.7,0.3,2.7,0.3c1.1,0,2.1-0.1,3-0.4c0.9-0.3,1.6-0.7,2.1-1.3s0.8-1.3,1-2.2
		c0.2-0.9,0.2-2.2,0.2-3.8v-4.5c0-0.8,0-1.8,0-3.1s-0.1-2.1-0.2-2.3S69,29,68.8,28.9c-0.3-0.1-0.9-0.2-2.1-0.2l-0.1-0.1v-0.7
		l0.1-0.1c1.4,0.1,2.6,0.1,3.5,0.1c0.7,0,1.9,0,3.5-0.1l0.1,0.1v0.7l-0.1,0.1c-0.9,0-1.5,0.1-1.8,0.1c-0.3,0.1-0.5,0.1-0.6,0.2
		S71,29.4,71,29.6c-0.1,0.2-0.1,0.9-0.1,1.9l0,3.3v4.5c0,1.8-0.1,3.2-0.2,4.2s-0.4,1.9-0.9,2.5c-0.5,0.7-1,1.2-1.7,1.7
		c-0.7,0.4-1.5,0.8-2.5,1c-1,0.2-2.1,0.4-3.2,0.4c-1.4,0-2.6-0.2-3.6-0.5c-1.1-0.3-1.9-0.7-2.5-1.2s-1-1-1.3-1.6
		c-0.3-0.6-0.4-1.2-0.5-1.9c-0.1-0.7-0.1-1.9-0.1-3.4v-5.6l0-2.9c0-1.1,0-1.8-0.1-2.2c0-0.3-0.1-0.5-0.2-0.6s-0.3-0.2-0.5-0.3
		s-0.9-0.1-1.9-0.2l-0.1-0.1V27.9z"/>
	<path class="st1" d="M75.5,43.5l0.1-0.1h0.7l0.1,0.1c0,1.3,0.1,2,0.2,2.3c0.1,0.3,0.3,0.6,0.8,0.9c0.4,0.3,1,0.6,1.8,0.8
		c0.7,0.2,1.5,0.3,2.2,0.3c1,0,2-0.2,2.8-0.6s1.5-0.9,1.9-1.7c0.5-0.7,0.7-1.6,0.7-2.5c0-0.6-0.1-1.2-0.3-1.7
		c-0.2-0.5-0.5-0.9-0.9-1.2c-0.4-0.3-0.8-0.5-1.4-0.6c-0.5-0.1-1.3-0.3-2.3-0.5c-1-0.2-1.7-0.3-2.3-0.4c-0.6-0.1-1.1-0.3-1.6-0.6
		s-1-0.6-1.4-1c-0.4-0.4-0.7-0.9-0.9-1.5c-0.2-0.6-0.3-1.2-0.3-1.9c0-1.8,0.6-3.3,1.9-4.5s3-1.8,5.1-1.8c0.8,0,1.8,0.1,2.8,0.3
		c1,0.2,1.9,0.5,2.7,0.9l0.1,0.2c-0.2,0.9-0.3,2.2-0.4,3.8l-0.1,0.1h-0.8l-0.1-0.1c0-1.2,0-1.9-0.1-2.2s-0.5-0.7-1.3-1.1
		s-1.8-0.7-2.8-0.7c-0.8,0-1.6,0.2-2.3,0.5s-1.3,0.9-1.6,1.6s-0.6,1.4-0.6,2.2c0,0.6,0.1,1.1,0.3,1.5s0.5,0.8,0.9,1.1
		s0.8,0.5,1.2,0.6c0.5,0.1,1.3,0.3,2.6,0.5c1.7,0.2,3,0.5,3.8,0.9s1.4,0.9,1.9,1.6c0.5,0.8,0.7,1.7,0.7,2.7c0,2.1-0.8,3.8-2.5,5.2
		s-3.7,2.1-6.2,2.1c-2,0-3.8-0.4-5.3-1.1l-0.1-0.2C75.3,47.2,75.4,45.7,75.5,43.5z"/>
	<path class="st1" d="M90.9,27.8l1.8,0.1c1.2,0,2,0.1,2.4,0.1c0.3,0,1.7,0,4.2-0.1l0.1,0.1v0.7l-0.1,0.1c-0.7,0-1.2,0-1.6,0.1
		c-0.4,0-0.6,0.1-0.8,0.2s-0.3,0.4-0.3,0.8c-0.1,0.4-0.1,0.9-0.1,1.6l0,3.4v6.8l0,2.9c0,1.1,0,1.8,0.1,2.1s0.1,0.5,0.2,0.6
		c0.1,0.1,0.3,0.2,0.5,0.3c0.3,0.1,0.9,0.1,1.9,0.2l0.1,0.1v0.7l-0.1,0.1c0,0-0.9,0-2.6-0.1c-0.7,0-1.2,0-1.6,0
		c-0.3,0-1.7,0-4.2,0.1l-0.1-0.1v-0.7l0.1-0.1c0.9,0,1.5-0.1,1.8-0.1s0.5-0.1,0.6-0.2c0.1-0.1,0.2-0.3,0.2-0.6s0.1-1,0.1-2l0-3.1
		v-6.8l0-2.9c0-1.1,0-1.8-0.1-2.2c0-0.3-0.1-0.5-0.2-0.6c-0.1-0.1-0.3-0.2-0.5-0.3s-0.9-0.1-1.9-0.2l-0.1-0.1v-0.7L90.9,27.8z"/>
	<path class="st1" d="M101.1,48.6l-0.1-0.1v-0.7l0.1-0.1c0.6,0,1.1,0,1.4-0.1s0.6-0.2,0.7-0.3c0.1-0.1,0.2-0.4,0.2-0.7
		c0-0.3,0.1-1,0.1-2.1s0.1-1.8,0.1-2.3V30.5c0-0.5-0.1-0.9-0.3-1.1c-0.2-0.2-0.4-0.4-0.7-0.5s-0.8-0.1-1.6-0.1l-0.1-0.1V28l0.1-0.1
		c1.3,0,2.2,0.1,2.7,0.1c1,0,1.8,0,2.4-0.1l4.7,6.1l6.9,8.6c0.8,1,1.7,2,2.5,3V34.2c0-0.4,0-1.1-0.1-2.2S120,30,120,29.7
		s-0.1-0.5-0.3-0.6s-0.4-0.2-0.7-0.2c-0.3-0.1-0.8-0.1-1.4-0.1l-0.1-0.1V28l0.1-0.1c0.8,0,1.9,0.1,3.4,0.1c1.3,0,2.3,0,2.9-0.1
		l0.1,0.1v0.7l-0.1,0.1c-0.6,0-1.1,0-1.5,0.1s-0.6,0.2-0.7,0.3s-0.1,0.4-0.2,0.6c0,0.3-0.1,1-0.1,2s-0.1,1.8-0.1,2.3v7l0,4
		c0,1.3,0,2.6,0.1,4c-0.5-0.2-1.3-0.4-2.5-0.6l-1-1.2l-3.1-3.8l-9.9-12.4v11.2c0,0.4,0,1.3,0.1,2.4s0.1,1.9,0.1,2.1s0.1,0.4,0.2,0.5
		c0.1,0.1,0.2,0.2,0.5,0.3s0.8,0.1,1.6,0.1l0.1,0.1v0.7l-0.1,0.1c-0.5-0.1-1.3-0.1-2.5-0.1C103.5,48.5,102.2,48.5,101.1,48.6z"/>
	<path class="st1" d="M147,40.5V41l-0.1,0.2l-0.7,0.4c-0.2,0.1-0.3,0.2-0.3,0.2s-0.1,0.3-0.1,0.9c0,0.5-0.1,1.2-0.1,1.9
		c0,0.8,0.1,1.8,0.2,2.8l-0.1,0.1c-2.7,1-5.4,1.5-8.2,1.5c-2.2,0-4.1-0.4-5.9-1.2s-3.1-2-4.2-3.6c-1-1.6-1.5-3.5-1.5-5.7
		c0-3.4,1.2-6.1,3.5-8.1c2.3-2,5.3-3,9-3c2.7,0,5.2,0.5,7.4,1.4l0.1,0.2c-0.2,0.7-0.4,2-0.6,4.1l-0.1,0.1h-0.7l-0.1-0.1l-0.1-1.6
		c0-0.5-0.1-0.8-0.1-0.9c0-0.1-0.1-0.2-0.3-0.3s-0.6-0.4-1.4-0.7c-0.7-0.3-1.5-0.5-2.2-0.7s-1.5-0.2-2.4-0.2c-1.8,0-3.4,0.4-4.7,1.1
		s-2.4,1.8-3.1,3.2s-1,3-1,4.7c0,1.8,0.4,3.5,1.1,5c0.8,1.5,1.8,2.8,3.2,3.6s3,1.3,4.9,1.3c0.8,0,1.6-0.1,2.5-0.2
		c0.8-0.2,1.5-0.4,2.1-0.7c0.1-0.3,0.1-0.9,0.1-1.9v-1.6c0-0.8,0-1.3-0.1-1.4c-0.1-0.2-0.3-0.3-0.7-0.4c-0.4-0.1-1.2-0.1-2.5-0.1
		l-0.1-0.1v-0.6l0.1-0.1l0.9,0c1.5,0,2.8,0.1,3.8,0.1c0.6,0,1.4,0,2.4-0.1L147,40.5z"/>
	<path class="st1" d="M156.4,27.8c2.5,0.1,4,0.1,4.7,0.1c0.9,0,1.9,0,3.1-0.1c1.2,0,2-0.1,2.2-0.1c1.4,0,2.5,0.1,3.4,0.4
		c0.9,0.3,1.6,0.8,2.2,1.6s0.9,1.7,0.9,2.7c0,0.9-0.2,1.7-0.6,2.5s-1,1.5-1.7,2.1s-1.5,1-2.2,1.2c-0.8,0.2-1.5,0.4-2.3,0.4
		c-0.6,0-1.3-0.1-2-0.2l-0.2-0.9l0.1-0.1c0.7,0.2,1.3,0.2,1.8,0.2c1.3,0,2.3-0.4,3.1-1.3c0.8-0.8,1.2-1.9,1.2-3.2
		c0-1.3-0.4-2.4-1.2-3.2c-0.8-0.8-2-1.2-3.7-1.2c-0.9,0-1.9,0.2-2.9,0.5c-0.1,0.8-0.1,2.6-0.1,5.4v6.8l0,2.9c0,1.1,0,1.8,0.1,2.1
		s0.1,0.5,0.2,0.6c0.1,0.1,0.3,0.2,0.5,0.3c0.3,0.1,0.9,0.1,1.9,0.2l0.1,0.1v0.7l-0.1,0.1c-2.5-0.1-3.9-0.1-4.2-0.1
		c-0.3,0-1.7,0-4.2,0.1l-0.1-0.1v-0.7l0.1-0.1c0.9,0,1.5-0.1,1.8-0.1s0.5-0.1,0.6-0.2c0.1-0.1,0.2-0.3,0.2-0.6s0.1-1,0.1-2l0-3.1
		v-6.8l0-2.9c0-1.1,0-1.8-0.1-2.2c0-0.3-0.1-0.5-0.2-0.6c-0.1-0.1-0.3-0.2-0.5-0.3s-0.9-0.1-1.9-0.2l-0.1-0.1v-0.7L156.4,27.8z"/>
	<path class="st1" d="M174.2,27.9l0.1-0.1c1.8,0.1,3.2,0.1,4.2,0.1c1.1,0,2.6,0,4.5-0.1c0.7,0,1.2,0,1.5,0c2.5,0,4.1,0.4,5,1.3
		s1.3,2,1.3,3.2c0,0.8-0.2,1.6-0.6,2.4s-1.1,1.5-1.9,2s-2,1-3.5,1.3c0.3,0.4,0.8,1,1.5,2l2.1,2.8c0.7,0.9,1.4,1.9,2.2,2.9
		c0.8,1,1.3,1.6,1.5,1.7c0.2,0.1,0.4,0.2,0.6,0.2c0.2,0,0.4,0,0.8,0l0.1,0.1v0.7l-0.1,0.1c-0.5-0.1-1-0.1-1.7-0.1
		c-0.7,0-1.5,0-2.3,0.1c-0.7-0.8-1.7-2.2-3.2-4.3c-1.7-2.3-3.4-4.5-5.2-6.5l0.1-0.5c0.5,0,0.9,0,1.2,0c1.7,0,3-0.4,4-1.2
		s1.4-1.9,1.4-3.4c0-1.3-0.4-2.3-1.3-2.9s-2-1-3.5-1c-1,0-2,0.1-2.9,0.4c-0.1,0.2-0.2,2-0.2,5.5v6.8l0,2.9c0,1.1,0,1.8,0.1,2.1
		s0.1,0.5,0.2,0.6s0.3,0.2,0.5,0.3c0.3,0.1,0.9,0.1,1.9,0.2l0.1,0.1v0.7l-0.1,0.1c0,0-0.9,0-2.6-0.1c-0.7,0-1.2,0-1.6,0
		c-0.3,0-1.7,0-4.2,0.1l-0.1-0.1v-0.7l0.1-0.1c0.9,0,1.5-0.1,1.8-0.1s0.5-0.1,0.6-0.2c0.1-0.1,0.2-0.3,0.3-0.6c0.1-0.3,0.1-1,0.1-2
		l0-3.1v-6.8l0-2.9c0-1.1,0-1.8-0.1-2.2c0-0.3-0.1-0.5-0.2-0.6s-0.3-0.2-0.5-0.3s-0.9-0.1-1.9-0.2l-0.1-0.1V27.9z"/>
	<path class="st1" d="M194.5,27.8l1.8,0.1c1.2,0,2,0.1,2.4,0.1c0.3,0,1.7,0,4.2-0.1l0.1,0.1v0.7l-0.1,0.1c-0.7,0-1.2,0-1.6,0.1
		c-0.4,0-0.6,0.1-0.8,0.2s-0.3,0.4-0.3,0.8c-0.1,0.4-0.1,0.9-0.1,1.6l0,3.4v6.8l0,2.9c0,1.1,0,1.8,0.1,2.1s0.1,0.5,0.2,0.6
		c0.1,0.1,0.3,0.2,0.5,0.3c0.3,0.1,0.9,0.1,1.9,0.2l0.1,0.1v0.7l-0.1,0.1c0,0-0.9,0-2.6-0.1c-0.7,0-1.2,0-1.6,0
		c-0.3,0-1.7,0-4.2,0.1l-0.1-0.1v-0.7l0.1-0.1c0.9,0,1.5-0.1,1.8-0.1s0.5-0.1,0.6-0.2c0.1-0.1,0.2-0.3,0.2-0.6s0.1-1,0.1-2l0-3.1
		v-6.8l0-2.9c0-1.1,0-1.8-0.1-2.2c0-0.3-0.1-0.5-0.2-0.6c-0.1-0.1-0.3-0.2-0.5-0.3s-0.9-0.1-1.9-0.2l-0.1-0.1v-0.7L194.5,27.8z"/>
	<path class="st1" d="M224.2,46l-0.6,1.4c-2.2,1.1-4.5,1.7-6.9,1.7c-3.5,0-6.4-1-8.6-3c-2.2-2-3.3-4.6-3.3-7.9
		c0-2.2,0.5-4.2,1.6-5.8c1.1-1.7,2.5-2.9,4.4-3.7c1.8-0.8,3.8-1.2,6.1-1.2c1.3,0,2.6,0.1,3.9,0.4s2.3,0.6,3.2,1l0.1,0.1
		c-0.2,0.5-0.4,1.9-0.6,4.1l-0.1,0.1h-0.7l-0.1-0.1l-0.1-2.5c-0.7-0.6-1.6-1-2.6-1.3c-1-0.3-2.1-0.5-3.2-0.5c-1.7,0-3.1,0.4-4.4,1.1
		s-2.3,1.7-3,3.1s-1.1,3-1.1,4.9c0,2,0.4,3.7,1.3,5.1s2,2.6,3.5,3.4c1.5,0.8,3.2,1.2,5.1,1.2c0.9,0,1.7-0.1,2.5-0.2s1.5-0.4,2-0.6
		s1-0.5,1.5-0.9L224.2,46z"/>
	<path class="st1" d="M226.1,27.9l0.1-0.1c3.3,0.1,5.5,0.1,6.4,0.1c3.2,0,6.1,0,8.6-0.1l0.1,0.1c-0.2,0.9-0.4,2.4-0.5,4.4l-0.1,0.1
		h-0.7l-0.1-0.1c0-0.1,0-0.2,0-0.2c0-0.8-0.1-1.6-0.2-2.4c-0.6-0.3-1.5-0.5-2.6-0.5s-1.9-0.1-2.5-0.1c-0.8,0-1.8,0.1-3,0.2l-0.1,2.3
		l0,2.7l0,3c1.1,0.1,2,0.1,2.9,0.1c0.9,0,1.7,0,2.3-0.1s1-0.1,1.1-0.2c0.1-0.1,0.2-0.2,0.2-0.4s0.1-0.5,0.1-1l0.1-0.9l0.1-0.1h0.7
		l0.1,0.1c0,1.1,0,2.1-0.1,3.2l0.1,3.3l-0.1,0.1h-0.7l-0.1-0.1l-0.1-0.9c-0.1-0.7-0.2-1.1-0.2-1.2c0-0.1-0.1-0.2-0.3-0.3
		c-0.1-0.1-0.5-0.2-1.1-0.2s-1.4-0.1-2.4-0.1c-0.6,0-1.4,0-2.6,0.1c0,0.8-0.1,2.2-0.1,4.1c0,2.1,0,3.6,0.1,4.5h2.7
		c2.4,0,3.9,0,4.5-0.1s1.2-0.2,1.7-0.4c0.1-0.2,0.2-0.7,0.4-1.6c0.2-0.8,0.3-1.3,0.3-1.5l0.1-0.1h0.7l0.1,0.1
		c-0.1,0.4-0.2,1.2-0.3,2.2s-0.1,1.9-0.1,2.7l-0.1,0.1c-1.9-0.1-4.3-0.1-7.3-0.1l-4,0c-0.9,0-1.9,0-2.9,0.1l-0.1-0.1V48l0.1-0.1
		c0.6-0.3,0.9-0.5,1-0.5c0.1-0.1,0.2-0.9,0.2-2.6c0.1-1.6,0.1-2.9,0.1-3.7v-5.4l0-3.3c0-0.7,0-1.3,0-1.8s-0.1-0.8-0.1-1
		s-0.1-0.3-0.2-0.4s-0.2-0.1-0.3-0.2c-0.1-0.1-0.4-0.1-0.7-0.1l-1.1-0.1l-0.1-0.1V27.9z"/>
	<path class="st1" d="M244.5,43.5l0.1-0.1h0.7l0.1,0.1c0,1.3,0.1,2,0.2,2.3c0.1,0.3,0.3,0.6,0.8,0.9c0.4,0.3,1,0.6,1.8,0.8
		c0.7,0.2,1.5,0.3,2.2,0.3c1,0,2-0.2,2.8-0.6s1.5-0.9,1.9-1.7c0.5-0.7,0.7-1.6,0.7-2.5c0-0.6-0.1-1.2-0.3-1.7
		c-0.2-0.5-0.5-0.9-0.9-1.2c-0.4-0.3-0.8-0.5-1.4-0.6c-0.5-0.1-1.3-0.3-2.3-0.5c-1-0.2-1.7-0.3-2.3-0.4c-0.6-0.1-1.1-0.3-1.6-0.6
		s-1-0.6-1.4-1c-0.4-0.4-0.7-0.9-0.9-1.5c-0.2-0.6-0.3-1.2-0.3-1.9c0-1.8,0.6-3.3,1.9-4.5s3-1.8,5.1-1.8c0.8,0,1.8,0.1,2.8,0.3
		c1,0.2,1.9,0.5,2.7,0.9l0.1,0.2c-0.2,0.9-0.3,2.2-0.4,3.8l-0.1,0.1h-0.8l-0.1-0.1c0-1.2,0-1.9-0.1-2.2s-0.5-0.7-1.3-1.1
		s-1.8-0.7-2.8-0.7c-0.8,0-1.6,0.2-2.3,0.5s-1.3,0.9-1.6,1.6s-0.6,1.4-0.6,2.2c0,0.6,0.1,1.1,0.3,1.5s0.5,0.8,0.9,1.1
		s0.8,0.5,1.2,0.6c0.5,0.1,1.3,0.3,2.6,0.5c1.7,0.2,3,0.5,3.8,0.9s1.4,0.9,1.9,1.6c0.5,0.8,0.7,1.7,0.7,2.7c0,2.1-0.8,3.8-2.5,5.2
		s-3.7,2.1-6.2,2.1c-2,0-3.8-0.4-5.3-1.1l-0.1-0.2C244.4,47.2,244.5,45.7,244.5,43.5z"/>
</g>
<g>
	<rect x="290.5" y="0.1" class="st2" width="70" height="70.4"/>
	<g>
		<g>
			<line class="st3" x1="325.5" y1="16.2" x2="325.5" y2="45.9"/>
			<g>
				<polygon class="st4" points="312.4,35.3 314.8,33.1 325.5,44.7 336.3,33.1 338.6,35.3 325.5,49.4 				"/>
			</g>
		</g>
	</g>
	<line class="st5" x1="302.5" y1="54.4" x2="349.5" y2="54.4"/>
</g>
</svg>
