<?xml version="1.0" encoding="utf-8"?>
<!-- Generator: Adobe Illustrator 14.0.0, SVG Export Plug-In . SVG Version: 6.00 Build 43363)  -->
<!DOCTYPE svg PUBLIC "-//W3C//DTD SVG 1.1//EN" "http://www.w3.org/Graphics/SVG/1.1/DTD/svg11.dtd">
<svg version="1.1" id="Layer_1" xmlns="http://www.w3.org/2000/svg" xmlns:xlink="http://www.w3.org/1999/xlink" x="0px" y="0px"
	 width="276px" height="57px" viewBox="0 0 276 57" enable-background="new 0 0 276 57" xml:space="preserve">
<rect x="0" fill="#683F40" width="276" height="57"/>
<rect x="0" y="57" fill="#8E6F70" fill-opacity="0.6" width="276" height="654"/>
<rect x="21.754" y="188.022" fill="none" width="76.246" height="37.978"/>
<text transform="matrix(1 0 0 1 27.4592 201.749)" fill="#FFFFFF" font-family="'PalatinoLinotype-Roman'" font-size="16">Middle </text>
<text transform="matrix(1 0 0 1 25.885 220.9492)" fill="#FFFFFF" font-family="'PalatinoLinotype-Roman'" font-size="16">School</text>
<rect x="22.754" y="73.022" fill="none" width="105.246" height="18.978"/>
<text transform="matrix(1 0 0 1 22.7546 90.1807)" fill="#FFFFFF" font-family="'PalatinoLinotype-Bold'" font-size="20">Schools</text>
<rect x="22.754" y="414.021" fill="none" width="97.246" height="18.979"/>
<text transform="matrix(1 0 0 1 22.7546 431.1807)" fill="#FFFFFF" font-family="'PalatinoLinotype-Bold'" font-size="20">Houses</text>
<rect x="22.754" y="516.021" fill="none" width="217.246" height="18.979"/>
<text transform="matrix(1 0 0 1 22.7546 533.1807)" fill="#FFFFFF" font-family="'PalatinoLinotype-Bold'" font-size="20">School Districts</text>
<rect x="78.754" y="244.806" fill="none" width="166.246" height="18.978"/>
<text transform="matrix(1 0 0 1 78.7546 258.5322)" fill="#FFFFFF" font-family="'PalatinoLinotype-Roman'" font-size="16">Class 1 Division 1</text>
<rect x="157.754" y="188.022" fill="none" width="82.246" height="37.978"/>
<text transform="matrix(1 0 0 1 161.5369 201.749)" fill="#FFFFFF" font-family="'PalatinoLinotype-Roman'" font-size="16">Primary </text>
<text transform="matrix(1 0 0 1 164.8865 220.9492)" fill="#FFFFFF" font-family="'PalatinoLinotype-Roman'" font-size="16">School</text>
<circle fill="#C1282D" stroke="#FFFFFF" stroke-width="2" stroke-miterlimit="10" cx="60" cy="138" r="37"/>
<circle fill="#C1282D" stroke="#FFFFFF" stroke-width="2" stroke-miterlimit="10" cx="199.246" cy="158.078" r="10.182"/>
<circle fill="#ED2224" stroke="#FFFFFF" stroke-width="2" stroke-miterlimit="10" cx="57.246" cy="254.295" r="10.182"/>
<circle fill="none" stroke="#C1282D" stroke-width="4" stroke-miterlimit="10" cx="57.246" cy="464.295" r="10.182"/>
<rect x="78.754" y="271.807" fill="none" width="166.246" height="18.978"/>
<text transform="matrix(1 0 0 1 78.7546 285.5322)" fill="#FFFFFF" font-family="'PalatinoLinotype-Roman'" font-size="16">Class 1 Division 2</text>
<circle fill="#FFCD05" stroke="#FFFFFF" stroke-width="2" stroke-miterlimit="10" cx="57.246" cy="281.295" r="10.182"/>
<rect x="78.754" y="298.807" fill="none" width="166.246" height="18.978"/>
<text transform="matrix(1 0 0 1 78.7546 312.5322)" fill="#FFFFFF" font-family="'PalatinoLinotype-Roman'" font-size="16">Class 2 Division 1</text>
<circle fill="#A5CE39" stroke="#FFFFFF" stroke-width="2" stroke-miterlimit="10" cx="57.246" cy="308.295" r="10.182"/>
<rect x="78.754" y="325.807" fill="none" width="166.246" height="18.978"/>
<text transform="matrix(1 0 0 1 78.7546 339.5322)" fill="#FFFFFF" font-family="'PalatinoLinotype-Roman'" font-size="16">Class 2 Division 2</text>
<circle fill="#AFDDE2" stroke="#FFFFFF" stroke-width="2" stroke-miterlimit="10" cx="57.246" cy="335.295" r="10.182"/>
<rect x="78.754" y="352.807" fill="none" width="166.246" height="18.978"/>
<text transform="matrix(1 0 0 1 78.7546 366.5322)" fill="#FFFFFF" font-family="'PalatinoLinotype-Roman'" font-size="16">General</text>
<rect x="78.754" y="455.806" fill="none" width="181.246" height="16.194"/>
<text transform="matrix(1 0 0 1 78.7546 469.5322)" fill="#FFFFFF" font-family="'PalatinoLinotype-Roman'" font-size="16">Location of </text>
<rect x="78.754" y="551.806" fill="none" width="181.246" height="16.194"/>
<text transform="matrix(1 0 0 1 78.7546 565.5322)" fill="#FFFFFF" font-family="'PalatinoLinotype-Roman'" font-size="16">0.00-0.20</text>
<rect x="78.754" y="581.806" fill="none" width="181.246" height="16.194"/>
<text transform="matrix(1 0 0 1 78.7546 595.5322)" fill="#FFFFFF" font-family="'PalatinoLinotype-Roman'" font-size="16">0.20-0.40</text>
<rect x="78.754" y="611.806" fill="none" width="181.246" height="16.194"/>
<text transform="matrix(1 0 0 1 78.7546 625.5322)" fill="#FFFFFF" font-family="'PalatinoLinotype-Roman'" font-size="16">0.40-0.60</text>
<rect x="78.754" y="641.806" fill="none" width="181.246" height="16.194"/>
<text transform="matrix(1 0 0 1 78.7546 655.5322)" fill="#FFFFFF" font-family="'PalatinoLinotype-Roman'" font-size="16">0.60-0.80</text>
<rect x="78.754" y="671.806" fill="none" width="181.246" height="16.194"/>
<text transform="matrix(1 0 0 1 78.7546 685.5322)" fill="#FFFFFF" font-family="'PalatinoLinotype-Roman'" font-size="16">0.80-more</text>
<circle fill="#9679B6" stroke="#FFFFFF" stroke-width="2" stroke-miterlimit="10" cx="57.246" cy="362.295" r="10.182"/>
<rect x="47" y="550" opacity="0.85" fill="#F2DCDB" stroke="#FFFFFF" stroke-miterlimit="10" enable-background="new    " width="20" height="20"/>
<rect x="47" y="580" opacity="0.85" fill="#E69B9D" stroke="#FFFFFF" stroke-miterlimit="10" enable-background="new    " width="20" height="20"/>
<rect x="47" y="610" opacity="0.85" fill="#D8686B" stroke="#FFFFFF" stroke-miterlimit="10" enable-background="new    " width="20" height="20"/>
<rect x="47" y="640" opacity="0.85" fill="#CB373A" stroke="#FFFFFF" stroke-miterlimit="10" enable-background="new    " width="20" height="20"/>
<rect x="47" y="670" opacity="0.85" fill="#8F191C" stroke="#FFFFFF" stroke-miterlimit="10" enable-background="new    " width="20" height="20"/>
<text transform="matrix(1 0 0 1 16.6121 37.6035)" fill="#E6E6E5" font-family="'PalatinoLinotype-Bold'" font-size="24">LEGEND</text>
<line fill="none" stroke="#FFFFFF" stroke-width="2" stroke-miterlimit="10" x1="23" y1="393" x2="260" y2="393"/>
</svg>
