<?xml version="1.0" encoding="utf-8"?>
<!-- Generator: Adobe Illustrator 22.0.0, SVG Export Plug-In . SVG Version: 6.00 Build 0)  -->
<svg version="1.1" id="Layer_1" xmlns="http://www.w3.org/2000/svg" xmlns:xlink="http://www.w3.org/1999/xlink" x="0px" y="0px"
	 width="276px" height="653.9px" viewBox="0 0 276 653.9" style="enable-background:new 0 0 276 653.9;" xml:space="preserve">
<style type="text/css">
	.st0{fill:#8E6F70;fill-opacity:0.6;}
	.st1{fill:none;}
	.st2{fill:#FFFFFF;}
	.st3{font-family:'PalatinoLinotype-Roman';}
	.st4{font-size:16px;}
	.st5{font-family:'PalatinoLinotype-Bold';}
	.st6{font-size:20px;}
	.st7{opacity:0.85;fill:#F2DCDB;stroke:#FFFFFF;stroke-miterlimit:10;enable-background:new    ;}
	.st8{opacity:0.85;fill:#E69B9D;stroke:#FFFFFF;stroke-miterlimit:10;enable-background:new    ;}
	.st9{opacity:0.85;fill:#D8686B;stroke:#FFFFFF;stroke-miterlimit:10;enable-background:new    ;}
	.st10{opacity:0.85;fill:#CB373A;stroke:#FFFFFF;stroke-miterlimit:10;enable-background:new    ;}
	.st11{opacity:0.85;fill:#8F191C;stroke:#FFFFFF;stroke-miterlimit:10;enable-background:new    ;}
	.st12{fill:none;stroke:#FFFFFF;stroke-width:2;stroke-miterlimit:10;}
	.st13{opacity:0.3;fill:#E42321;enable-background:new    ;}
	.st14{opacity:0.6;fill:#E42321;enable-background:new    ;}
	.st15{fill:#E42321;}
	.st16{opacity:0.3;fill:#FFCD05;enable-background:new    ;}
	.st17{fill:#FFCD05;}
	.st18{opacity:0.3;fill:#A5CE39;enable-background:new    ;}
	.st19{fill:#A5CE39;}
	.st20{opacity:0.3;fill:#AFDDE2;enable-background:new    ;}
	.st21{fill:#AFDDE2;}
	.st22{opacity:0.3;fill:#9679B6;enable-background:new    ;}
	.st23{fill:#9679B6;}
	.st24{opacity:0.7;fill:#C0282E;enable-background:new    ;}
</style>
<rect y="-0.1" class="st0" width="276" height="654"/>
<rect x="21.8" y="130.9" class="st1" width="76.2" height="38"/>
<text transform="matrix(1 0 0 1 33.7461 135.0388)" class="st2 st3 st4">Middle </text>
<text transform="matrix(1 0 0 1 36.5315 154.2388)" class="st2 st3 st4">School</text>
<rect x="22.8" y="15.9" class="st1" width="105.2" height="19"/>
<text transform="matrix(1 0 0 1 22.7539 33.0705)" class="st2 st5 st6">Schools</text>
<rect x="22.8" y="356.9" class="st1" width="97.2" height="19"/>
<text transform="matrix(1 0 0 1 22.7539 374.0705)" class="st2 st5 st6">Houses</text>
<rect x="22.8" y="458.9" class="st1" width="217.2" height="19"/>
<text transform="matrix(1 0 0 1 22.7539 476.0705)" class="st2 st5 st6">School Districts</text>
<rect x="78.8" y="187.7" class="st1" width="166.2" height="19"/>
<text transform="matrix(1 0 0 1 78.7539 201.569)" class="st2 st3 st4">Class 1 Division 1</text>
<rect x="157.8" y="130.9" class="st1" width="82.2" height="38"/>
<text transform="matrix(1 0 0 1 169.377 135.0388)" class="st2 st3 st4">Primary </text>
<text transform="matrix(1 0 0 1 172.725 154.2388)" class="st2 st3 st4">School</text>
<rect x="78.8" y="214.7" class="st1" width="166.2" height="19"/>
<text transform="matrix(1 0 0 1 78.7539 228.422)" class="st2 st3 st4">Class 1 Division 2</text>
<rect x="78.8" y="241.7" class="st1" width="166.2" height="19"/>
<text transform="matrix(1 0 0 1 78.7539 255.422)" class="st2 st3 st4">Class 2 Division 1</text>
<rect x="78.8" y="268.7" class="st1" width="166.2" height="19"/>
<text transform="matrix(1 0 0 1 78.7539 282.422)" class="st2 st3 st4">Class 2 Division 2</text>
<rect x="78.8" y="295.7" class="st1" width="166.2" height="19"/>
<text transform="matrix(1 0 0 1 78.7539 309.422)" class="st2 st3 st4">General</text>
<rect x="78.8" y="398.7" class="st1" width="181.2" height="16.2"/>
<text transform="matrix(1 0 0 1 78.7539 412.422)" class="st2 st3 st4">Location of Houses</text>
<rect x="78.8" y="494.7" class="st1" width="181.2" height="16.2"/>
<text transform="matrix(1 0 0 1 78.7539 508.422)" class="st2 st3 st4">0.000-0.025</text>
<rect x="78.8" y="524.7" class="st1" width="181.2" height="16.2"/>
<text transform="matrix(1 0 0 1 78.7539 538.422)" class="st2 st3 st4">0.025-0.050</text>
<rect x="78.8" y="554.7" class="st1" width="181.2" height="16.2"/>
<text transform="matrix(1 0 0 1 78.7539 568.422)" class="st2 st3 st4">0.050-0.075</text>
<rect x="78.8" y="584.7" class="st1" width="181.2" height="16.2"/>
<text transform="matrix(1 0 0 1 78.7539 598.422)" class="st2 st3 st4">0.075-0.100</text>
<rect x="78.8" y="614.7" class="st1" width="181.2" height="16.2"/>
<text transform="matrix(1 0 0 1 78.7539 628.422)" class="st2 st3 st4">0.100-more</text>
<rect x="47" y="492.9" class="st7" width="20" height="20"/>
<rect x="47" y="522.9" class="st8" width="20" height="20"/>
<rect x="47" y="552.9" class="st9" width="20" height="20"/>
<rect x="47" y="582.9" class="st10" width="20" height="20"/>
<rect x="47" y="612.9" class="st11" width="20" height="20"/>
<line class="st12" x1="23" y1="335.9" x2="260" y2="335.9"/>
<line class="st12" x1="23" y1="438.9" x2="260" y2="438.9"/>
<g>
	<ellipse class="st13" cx="57.2" cy="83" rx="31.9" ry="31.9"/>
	<circle class="st14" cx="57.2" cy="82.9" r="23.9"/>
</g>
<g>
	<ellipse class="st13" cx="198.9" cy="89.6" rx="17" ry="17"/>
	<ellipse class="st15" cx="198.9" cy="89.6" rx="8.5" ry="8.5"/>
</g>
<g>
	<ellipse class="st13" cx="57.2" cy="196.1" rx="11.3" ry="11.3"/>
	<circle class="st15" cx="57.2" cy="196" r="5.7"/>
</g>
<g>
	
		<ellipse transform="matrix(0.2298 -0.9732 0.9732 0.2298 -173.1942 227.6402)" class="st16" cx="57.2" cy="223.2" rx="11.3" ry="11.3"/>
	<circle class="st17" cx="57.2" cy="223.2" r="5.7"/>
</g>
<g>
	
		<ellipse transform="matrix(0.2298 -0.9732 0.9732 0.2298 -199.6416 248.4956)" class="st18" cx="57.2" cy="250.4" rx="11.3" ry="11.3"/>
	<circle class="st19" cx="57.2" cy="250.3" r="5.7"/>
</g>
<g>
	
		<ellipse transform="matrix(0.2298 -0.9732 0.9732 0.2298 -226.0364 269.4632)" class="st20" cx="57.2" cy="277.5" rx="11.3" ry="11.3"/>
	<circle class="st21" cx="57.2" cy="277.5" r="5.7"/>
</g>
<g>
	
		<ellipse transform="matrix(0.2298 -0.9732 0.9732 0.2298 -252.4837 290.3185)" class="st22" cx="57.2" cy="304.7" rx="11.3" ry="11.3"/>
	<circle class="st23" cx="57.2" cy="304.6" r="5.7"/>
</g>
<ellipse transform="matrix(3.327792e-02 -0.9994 0.9994 3.327792e-02 -351.4613 450.2211)" class="st24" cx="57" cy="406.8" rx="11.3" ry="11.3"/>
</svg>
