<?xml version="1.0" encoding="utf-8"?>
<!-- Generator: Adobe Illustrator 22.0.0, SVG Export Plug-In . SVG Version: 6.00 Build 0)  -->
<svg version="1.1" id="Layer_1" xmlns="http://www.w3.org/2000/svg" xmlns:xlink="http://www.w3.org/1999/xlink" x="0px" y="0px"
	 width="276px" height="437.9px" viewBox="0 0 276 437.9" style="enable-background:new 0 0 276 437.9;" xml:space="preserve">
<style type="text/css">
	.st0{fill:#8E6F70;fill-opacity:0.6;}
	.st1{fill:none;}
	.st2{fill:#FFFFFF;}
	.st3{font-family:'PalatinoLinotype-Roman';}
	.st4{font-size:16px;}
	.st5{font-family:'PalatinoLinotype-Bold';}
	.st6{font-size:20px;}
	.st7{fill:none;stroke:#FFFFFF;stroke-width:2;stroke-miterlimit:10;}
	.st8{opacity:0.3;fill:#E42321;enable-background:new    ;}
	.st9{opacity:0.6;fill:#E42321;enable-background:new    ;}
	.st10{fill:#E42321;}
	.st11{opacity:0.3;fill:#FFCD05;enable-background:new    ;}
	.st12{fill:#FFCD05;}
	.st13{opacity:0.3;fill:#A5CE39;enable-background:new    ;}
	.st14{fill:#A5CE39;}
	.st15{opacity:0.3;fill:#AFDDE2;enable-background:new    ;}
	.st16{fill:#AFDDE2;}
	.st17{opacity:0.3;fill:#9679B6;enable-background:new    ;}
	.st18{fill:#9679B6;}
	.st19{opacity:0.7;fill:#C0282E;enable-background:new    ;}
</style>
<rect y="-1.1" class="st0" width="276" height="439"/>
<rect x="21.8" y="129.9" class="st1" width="76.2" height="38"/>
<text transform="matrix(1 0 0 1 33.7461 134.0388)" class="st2 st3 st4">Middle </text>
<text transform="matrix(1 0 0 1 36.5315 153.2388)" class="st2 st3 st4">School</text>
<rect x="22.8" y="14.9" class="st1" width="105.2" height="19"/>
<text transform="matrix(1 0 0 1 22.7539 32.0705)" class="st2 st5 st6">Schools</text>
<rect x="22.8" y="355.9" class="st1" width="97.2" height="19"/>
<text transform="matrix(1 0 0 1 22.7539 373.0705)" class="st2 st5 st6">Houses</text>
<rect x="78.8" y="186.7" class="st1" width="166.2" height="19"/>
<text transform="matrix(1 0 0 1 78.7539 200.569)" class="st2 st3 st4">Class 1 Division 1</text>
<rect x="157.8" y="129.9" class="st1" width="82.2" height="38"/>
<text transform="matrix(1 0 0 1 169.377 134.0388)" class="st2 st3 st4">Primary </text>
<text transform="matrix(1 0 0 1 172.725 153.2388)" class="st2 st3 st4">School</text>
<rect x="78.8" y="213.7" class="st1" width="166.2" height="19"/>
<text transform="matrix(1 0 0 1 78.7539 227.422)" class="st2 st3 st4">Class 1 Division 2</text>
<rect x="78.8" y="240.7" class="st1" width="166.2" height="19"/>
<text transform="matrix(1 0 0 1 78.7539 254.422)" class="st2 st3 st4">Class 2 Division 1</text>
<rect x="78.8" y="267.7" class="st1" width="166.2" height="19"/>
<text transform="matrix(1 0 0 1 78.7539 281.422)" class="st2 st3 st4">Class 2 Division 2</text>
<rect x="78.8" y="294.7" class="st1" width="166.2" height="19"/>
<text transform="matrix(1 0 0 1 78.7539 308.422)" class="st2 st3 st4">General</text>
<rect x="78.8" y="397.7" class="st1" width="181.2" height="16.2"/>
<text transform="matrix(1 0 0 1 78.7539 411.422)" class="st2 st3 st4">Location of Houses</text>
<line class="st7" x1="23" y1="334.9" x2="260" y2="334.9"/>
<g>
	<ellipse class="st8" cx="57.2" cy="82" rx="31.9" ry="31.9"/>
	<circle class="st9" cx="57.2" cy="81.9" r="23.9"/>
</g>
<g>
	<ellipse class="st8" cx="198.9" cy="88.6" rx="17" ry="17"/>
	<ellipse class="st10" cx="198.9" cy="88.6" rx="8.5" ry="8.5"/>
</g>
<g>
	<ellipse class="st8" cx="57.2" cy="195.1" rx="11.3" ry="11.3"/>
	<circle class="st10" cx="57.2" cy="195" r="5.7"/>
</g>
<g>
	<ellipse class="st11" cx="57.2" cy="222.3" rx="11.3" ry="11.3"/>
	<circle class="st12" cx="57.2" cy="222.2" r="5.7"/>
</g>
<g>
	<ellipse class="st13" cx="57.2" cy="249.4" rx="11.3" ry="11.3"/>
	<circle class="st14" cx="57.2" cy="249.3" r="5.7"/>
</g>
<g>
	
		<ellipse transform="matrix(0.2298 -0.9732 0.9732 0.2298 -225.1308 268.6497)" class="st15" cx="57.2" cy="276.6" rx="11.3" ry="11.3"/>
	<circle class="st16" cx="57.2" cy="276.5" r="5.7"/>
</g>
<g>
	
		<ellipse transform="matrix(0.2298 -0.9732 0.9732 0.2298 -251.4929 289.5495)" class="st17" cx="57.2" cy="303.7" rx="11.3" ry="11.3"/>
	<circle class="st18" cx="57.2" cy="303.6" r="5.7"/>
</g>
<ellipse transform="matrix(6.652053e-02 -0.9978 0.9978 6.652053e-02 -351.6936 435.6644)" class="st19" cx="57" cy="405.8" rx="11.3" ry="11.3"/>
</svg>
