<?xml version="1.0" encoding="utf-8"?>
<!-- Generator: Adobe Illustrator 22.0.0, SVG Export Plug-In . SVG Version: 6.00 Build 0)  -->
<svg version="1.1" id="Layer_1" xmlns="http://www.w3.org/2000/svg" xmlns:xlink="http://www.w3.org/1999/xlink" x="0px" y="0px"
	 width="386.8px" height="70.5px" viewBox="0 0 386.8 70.5" style="enable-background:new 0 0 386.8 70.5;" xml:space="preserve">
<style type="text/css">
	.st0{fill:#C1292E;}
	.st1{fill:#F3D5D5;}
	.st2{fill:#921E23;}
	.st3{fill:none;stroke:#FFFFFF;stroke-width:8;stroke-miterlimit:10;}
	.st4{fill:#FFFFFF;}
	.st5{fill:none;stroke:#FFFFFF;stroke-width:2;stroke-miterlimit:10;}
</style>
<rect x="-1.6" y="0.1" class="st0" width="317.5" height="70.4"/>
<path class="st1" d="M17.1,43.5l0.1-0.1h0.7l0.1,0.1c0,1.3,0.1,2,0.2,2.3c0.1,0.3,0.3,0.6,0.8,0.9c0.4,0.3,1,0.6,1.8,0.8
	c0.7,0.2,1.5,0.3,2.2,0.3c1,0,2-0.2,2.8-0.6c0.8-0.4,1.5-0.9,1.9-1.7c0.5-0.7,0.7-1.6,0.7-2.5c0-0.6-0.1-1.2-0.3-1.7
	c-0.2-0.5-0.5-0.9-0.9-1.2c-0.4-0.3-0.8-0.5-1.4-0.6c-0.5-0.1-1.3-0.3-2.3-0.5c-1-0.2-1.7-0.3-2.3-0.4c-0.6-0.1-1.1-0.3-1.6-0.6
	c-0.5-0.3-1-0.6-1.4-1c-0.4-0.4-0.7-0.9-0.9-1.5c-0.2-0.6-0.3-1.2-0.3-1.9c0-1.8,0.6-3.3,1.9-4.5s3-1.8,5.1-1.8
	c0.8,0,1.8,0.1,2.8,0.3c1,0.2,1.9,0.5,2.7,0.9l0.1,0.2c-0.2,0.9-0.3,2.2-0.4,3.8l-0.1,0.1h-0.8l-0.1-0.1c0-1.2,0-1.9-0.1-2.2
	s-0.5-0.7-1.3-1.1S25,28.6,24,28.6c-0.8,0-1.6,0.2-2.3,0.5s-1.3,0.9-1.6,1.6s-0.6,1.4-0.6,2.2c0,0.6,0.1,1.1,0.3,1.5
	s0.5,0.8,0.9,1.1s0.8,0.5,1.2,0.6c0.5,0.1,1.3,0.3,2.6,0.5c1.7,0.2,3,0.5,3.8,0.9s1.4,0.9,1.9,1.6c0.5,0.8,0.7,1.7,0.7,2.7
	c0,2.1-0.8,3.8-2.5,5.2s-3.7,2.1-6.2,2.1c-2,0-3.8-0.4-5.3-1.1l-0.1-0.2C16.9,47.2,17,45.7,17.1,43.5z"/>
<path class="st1" d="M52.1,46l-0.6,1.4c-2.2,1.1-4.5,1.7-6.9,1.7c-3.5,0-6.4-1-8.6-3c-2.2-2-3.3-4.6-3.3-7.9c0-2.2,0.5-4.2,1.6-5.8
	c1.1-1.7,2.5-2.9,4.4-3.7c1.8-0.8,3.8-1.2,6.1-1.2c1.3,0,2.6,0.1,3.9,0.4s2.3,0.6,3.2,1l0.1,0.1c-0.2,0.5-0.4,1.9-0.6,4.1l-0.1,0.1
	h-0.7L50.4,33l-0.1-2.5c-0.7-0.6-1.6-1-2.6-1.3c-1-0.3-2.1-0.5-3.2-0.5c-1.7,0-3.1,0.4-4.4,1.1s-2.3,1.7-3,3.1s-1.1,3-1.1,4.9
	c0,2,0.4,3.7,1.3,5.1c0.8,1.5,2,2.6,3.5,3.4c1.5,0.8,3.2,1.2,5.1,1.2c0.9,0,1.7-0.1,2.5-0.2s1.5-0.4,2-0.6s1-0.5,1.5-0.9L52.1,46z"
	/>
<path class="st1" d="M53.8,27.8c2.5,0.1,3.9,0.1,4.2,0.1c0.3,0,1.7,0,4.2-0.1l0.1,0.1v0.7l-0.1,0.1c-0.7,0-1.2,0-1.6,0.1
	c-0.4,0-0.6,0.1-0.8,0.2s-0.3,0.4-0.3,0.8c-0.1,0.4-0.1,0.9-0.1,1.6l0,3.4v2.1c2.1,0.1,4.2,0.1,6.1,0.1c2.6,0,4.6,0,6-0.1v-2.1
	l0-2.9c0-1.1,0-1.8-0.1-2.2s-0.1-0.5-0.2-0.6s-0.3-0.2-0.5-0.3s-0.9-0.1-2-0.2l-0.1-0.1v-0.7l0.1-0.1c2.5,0.1,3.9,0.1,4.2,0.1
	c0.3,0,1.7,0,4.2-0.1l0.1,0.1v0.7L77,28.8c-0.7,0-1.2,0-1.6,0.1c-0.4,0-0.6,0.1-0.8,0.2s-0.3,0.4-0.3,0.8s-0.1,0.9-0.1,1.6l0,3.4
	v6.8l0,2.9c0,1.1,0,1.8,0.1,2.1s0.1,0.5,0.2,0.6c0.1,0.1,0.3,0.2,0.5,0.3c0.3,0.1,0.9,0.1,2,0.2l0.1,0.1v0.7L77,48.6
	c-2.5-0.1-3.9-0.1-4.2-0.1c-0.3,0-1.7,0-4.2,0.1l-0.1-0.1v-0.7l0.1-0.1c0.9,0,1.5-0.1,1.8-0.1s0.5-0.1,0.6-0.2
	c0.1-0.1,0.2-0.3,0.2-0.6s0.1-1,0.1-2l0-3.1v-3.3c-2.9-0.1-4.9-0.1-6.1-0.1c-1.2,0-3.2,0-6,0.1v3.3l0,2.9c0,1.1,0,1.8,0.1,2.1
	s0.1,0.5,0.2,0.6c0.1,0.1,0.3,0.2,0.5,0.3c0.3,0.1,0.9,0.1,1.9,0.2l0.1,0.1v0.7l-0.1,0.1c-2.5-0.1-3.9-0.1-4.2-0.1
	c-0.3,0-1.7,0-4.2,0.1l-0.1-0.1v-0.7l0.1-0.1c0.9,0,1.5-0.1,1.8-0.1c0.3-0.1,0.5-0.1,0.6-0.2c0.1-0.1,0.2-0.3,0.2-0.6s0.1-1,0.1-2
	l0-3.1v-6.8l0-2.9c0-1.1,0-1.8-0.1-2.2c0-0.3-0.1-0.5-0.2-0.6c-0.1-0.1-0.3-0.2-0.5-0.3s-0.9-0.1-1.9-0.2l-0.1-0.1v-0.7L53.8,27.8z"
	/>
<path class="st1" d="M78.6,38.4c0-1.5,0.2-2.8,0.6-4.1s1.1-2.4,2.1-3.5c1-1.1,2.2-1.9,3.7-2.5s3-0.9,4.8-0.9c3.3,0,6,0.9,8,2.7
	s3,4.3,3,7.4c0,2.2-0.5,4.2-1.5,5.9s-2.4,3.1-4.2,4.1c-1.8,1-3.8,1.5-6.1,1.5c-1.6,0-3.1-0.3-4.4-0.8c-1.3-0.5-2.5-1.3-3.4-2.4
	s-1.6-2.3-2.1-3.7C78.8,40.8,78.6,39.6,78.6,38.4z M81.6,37.5c0,1.2,0.2,2.5,0.6,3.8c0.4,1.4,1,2.5,1.7,3.5c0.8,1,1.7,1.7,2.7,2.2
	c1,0.5,2.1,0.7,3.4,0.7c1.5,0,2.9-0.3,4-1s2.1-1.8,2.7-3.2c0.6-1.5,0.9-3.1,0.9-4.9c0-2-0.4-3.8-1.1-5.3s-1.7-2.7-3-3.5
	s-2.7-1.1-4.3-1.1c-2.4,0-4.2,0.7-5.6,2.2S81.6,34.6,81.6,37.5z"/>
<path class="st1" d="M102.2,38.4c0-1.5,0.2-2.8,0.6-4.1c0.4-1.3,1.1-2.4,2.1-3.5c1-1.1,2.2-1.9,3.7-2.5c1.4-0.6,3-0.9,4.8-0.9
	c3.3,0,6,0.9,8,2.7s3,4.3,3,7.4c0,2.2-0.5,4.2-1.5,5.9s-2.4,3.1-4.2,4.1c-1.8,1-3.8,1.5-6.1,1.5c-1.6,0-3.1-0.3-4.4-0.8
	c-1.3-0.5-2.5-1.3-3.4-2.4c-0.9-1.1-1.6-2.3-2.1-3.7C102.4,40.8,102.2,39.6,102.2,38.4z M105.2,37.5c0,1.2,0.2,2.5,0.6,3.8
	c0.4,1.4,1,2.5,1.7,3.5c0.8,1,1.7,1.7,2.7,2.2c1,0.5,2.1,0.7,3.4,0.7c1.5,0,2.9-0.3,4-1s2.1-1.8,2.7-3.2c0.6-1.5,0.9-3.1,0.9-4.9
	c0-2-0.4-3.8-1.1-5.3s-1.7-2.7-3-3.5s-2.7-1.1-4.3-1.1c-2.4,0-4.2,0.7-5.6,2.2S105.2,34.6,105.2,37.5z"/>
<path class="st1" d="M125.6,27.9l0.1-0.1c2.4,0.1,3.8,0.1,4.2,0.1c0.3,0,1.7,0,4.2-0.1l0.1,0.1v0.7l-0.1,0.1c-0.7,0-1.2,0-1.6,0.1
	c-0.4,0-0.6,0.1-0.8,0.2s-0.3,0.4-0.3,0.8c-0.1,0.4-0.1,0.9-0.1,1.6l0,3.4v6.5c0,1.6,0,2.8,0,3.4l0.1,2.5h3c2.4,0,3.9,0,4.5-0.1
	c0.6-0.1,1.2-0.2,1.7-0.4c0.1-0.2,0.3-0.8,0.5-1.7c0.2-0.9,0.3-1.4,0.3-1.5l0.1-0.1h0.7l0.1,0.1c-0.1,0.4-0.2,1.1-0.2,2.3
	c-0.1,1.1-0.1,2-0.1,2.7l-0.1,0.1c-1.9-0.1-4.3-0.1-7.3-0.1l-4.3,0c-1,0-2,0-3,0.1l-0.1-0.1V48l0.1-0.1c0.6-0.3,0.9-0.5,1-0.6
	s0.1-0.7,0.2-1.9s0.1-2.6,0.1-4.3v-6.3l0-2.9c0-1.1,0-1.8-0.1-2.2c0-0.3-0.1-0.5-0.2-0.6c-0.1-0.1-0.3-0.2-0.5-0.3s-0.9-0.1-1.9-0.2
	l-0.1-0.1V27.9z"/>
<path class="st1" d="M151.3,27.9l0.1-0.1c1.7,0.1,2.8,0.1,3.5,0.1l6.9-0.1c2,0,3.6,0.2,4.8,0.5s2.4,1,3.3,1.9s1.7,2,2.2,3.1
	c0.5,1.2,0.8,2.5,0.8,3.8c0,1.3-0.2,2.6-0.7,3.9s-1.1,2.4-2,3.5c-0.8,1-1.8,1.8-2.9,2.5c-1.1,0.6-2.2,1-3.2,1.3
	c-1.1,0.2-2.2,0.3-3.3,0.3c-0.8,0-2.2,0-4.3-0.1c-0.7,0-1.2,0-1.4,0c-0.7,0-1.5,0-2.4,0.1l-0.1-0.1V48l0.1-0.1
	c0.6-0.3,0.9-0.5,1-0.5c0.1-0.1,0.2-0.9,0.2-2.6c0.1-1.6,0.1-2.9,0.1-3.7v-5.4l0-3.3c0-0.7,0-1.3,0-1.8s-0.1-0.8-0.1-1
	s-0.1-0.3-0.2-0.4c-0.1-0.1-0.2-0.1-0.3-0.2s-0.4-0.1-0.7-0.1l-1.1-0.1l-0.1-0.1V27.9z M156.7,47c1,0.2,2.1,0.3,3.4,0.3
	c2.3,0,4.1-0.4,5.5-1.1c1.4-0.8,2.4-1.9,3.1-3.4s1-3.2,1-5.1c0-2.8-0.7-4.9-2.2-6.4s-3.8-2.3-7-2.3c-1.3,0-2.6,0.1-3.8,0.3
	c-0.1,1.6-0.1,3.4-0.1,5.4v4.6l0,4.3C156.6,44.5,156.7,45.6,156.7,47z"/>
<path class="st1" d="M175,27.8l1.8,0.1c1.2,0,2,0.1,2.4,0.1c0.3,0,1.7,0,4.2-0.1l0.1,0.1v0.7l-0.1,0.1c-0.7,0-1.2,0-1.6,0.1
	c-0.4,0-0.6,0.1-0.8,0.2s-0.3,0.4-0.3,0.8c-0.1,0.4-0.1,0.9-0.1,1.6l0,3.4v6.8l0,2.9c0,1.1,0,1.8,0.1,2.1s0.1,0.5,0.2,0.6
	c0.1,0.1,0.3,0.2,0.5,0.3c0.3,0.1,0.9,0.1,1.9,0.2l0.1,0.1v0.7l-0.1,0.1c0,0-0.9,0-2.6-0.1c-0.7,0-1.2,0-1.6,0c-0.3,0-1.7,0-4.2,0.1
	l-0.1-0.1v-0.7l0.1-0.1c0.9,0,1.5-0.1,1.8-0.1s0.5-0.1,0.6-0.2c0.1-0.1,0.2-0.3,0.2-0.6s0.1-1,0.1-2l0-3.1v-6.8l0-2.9
	c0-1.1,0-1.8-0.1-2.2c0-0.3-0.1-0.5-0.2-0.6c-0.1-0.1-0.3-0.2-0.5-0.3s-0.9-0.1-1.9-0.2l-0.1-0.1v-0.7L175,27.8z"/>
<path class="st1" d="M185.4,43.5l0.1-0.1h0.7l0.1,0.1c0,1.3,0.1,2,0.2,2.3c0.1,0.3,0.3,0.6,0.8,0.9c0.4,0.3,1,0.6,1.8,0.8
	c0.7,0.2,1.5,0.3,2.2,0.3c1,0,2-0.2,2.8-0.6s1.5-0.9,1.9-1.7c0.5-0.7,0.7-1.6,0.7-2.5c0-0.6-0.1-1.2-0.3-1.7
	c-0.2-0.5-0.5-0.9-0.9-1.2c-0.4-0.3-0.8-0.5-1.4-0.6c-0.5-0.1-1.3-0.3-2.3-0.5c-1-0.2-1.7-0.3-2.3-0.4c-0.6-0.1-1.1-0.3-1.6-0.6
	s-1-0.6-1.4-1c-0.4-0.4-0.7-0.9-0.9-1.5c-0.2-0.6-0.3-1.2-0.3-1.9c0-1.8,0.6-3.3,1.9-4.5s3-1.8,5.1-1.8c0.8,0,1.8,0.1,2.8,0.3
	c1,0.2,1.9,0.5,2.7,0.9l0.1,0.2c-0.2,0.9-0.3,2.2-0.4,3.8l-0.1,0.1h-0.8l-0.1-0.1c0-1.2,0-1.9-0.1-2.2s-0.5-0.7-1.3-1.1
	s-1.8-0.7-2.8-0.7c-0.8,0-1.6,0.2-2.3,0.5s-1.3,0.9-1.6,1.6s-0.6,1.4-0.6,2.2c0,0.6,0.1,1.1,0.3,1.5s0.5,0.8,0.9,1.1
	s0.8,0.5,1.2,0.6c0.5,0.1,1.3,0.3,2.6,0.5c1.7,0.2,3,0.5,3.8,0.9s1.4,0.9,1.9,1.6c0.5,0.8,0.7,1.7,0.7,2.7c0,2.1-0.8,3.8-2.5,5.2
	s-3.7,2.1-6.2,2.1c-2,0-3.8-0.4-5.3-1.1l-0.1-0.2C185.2,47.2,185.3,45.7,185.4,43.5z"/>
<path class="st1" d="M217.6,27.8l0.1,0.1c-0.1,0.9-0.1,2.4-0.1,4.6l-0.1,0.1h-0.7l-0.1-0.1l-0.2-1.3c-0.1-0.7-0.1-1.2-0.2-1.3
	c0-0.2-0.1-0.3-0.2-0.4s-0.4-0.1-1-0.2s-1.1-0.1-1.8-0.1h-2.8c-0.1,2.2-0.1,3.5-0.1,3.8v8.5l0,2.9c0,1.1,0,1.8,0.1,2.1
	c0,0.3,0.1,0.5,0.2,0.6c0.1,0.1,0.3,0.2,0.5,0.3c0.3,0.1,0.9,0.1,2,0.2l0.1,0.1v0.7l-0.1,0.1c-2.5-0.1-3.9-0.1-4.2-0.1
	c-0.3,0-1.7,0-4.2,0.1l-0.1-0.1v-0.7l0.1-0.1c0.9,0,1.5-0.1,1.8-0.1c0.3-0.1,0.5-0.1,0.6-0.2c0.1-0.1,0.2-0.3,0.3-0.6s0.1-1,0.1-2
	l0-3.1v-8.5c0-0.2,0-1.4-0.1-3.8h-2.2c-0.9,0-1.7,0-2.3,0.1s-1,0.1-1.1,0.3c-0.1,0.2-0.2,0.7-0.3,1.6l-0.1,1.3l-0.1,0.1h-0.7
	l-0.1-0.1c0-2.4-0.1-3.9-0.1-4.6l0.1-0.1c1.7,0.1,4.5,0.1,8.5,0.1C213.2,27.9,216,27.9,217.6,27.8z"/>
<path class="st1" d="M218.9,27.9l0.1-0.1c1.8,0.1,3.2,0.1,4.2,0.1c1.1,0,2.6,0,4.5-0.1c0.7,0,1.2,0,1.5,0c2.5,0,4.1,0.4,5,1.3
	s1.3,2,1.3,3.2c0,0.8-0.2,1.6-0.6,2.4s-1.1,1.5-1.9,2s-2,1-3.5,1.3c0.3,0.4,0.8,1,1.5,2l2.1,2.8c0.7,0.9,1.4,1.9,2.2,2.9
	c0.8,1,1.3,1.6,1.5,1.7c0.2,0.1,0.4,0.2,0.6,0.2c0.2,0,0.4,0,0.8,0l0.1,0.1v0.7l-0.1,0.1c-0.5-0.1-1-0.1-1.7-0.1
	c-0.7,0-1.5,0-2.3,0.1c-0.7-0.8-1.7-2.2-3.2-4.3c-1.7-2.3-3.4-4.5-5.2-6.5l0.1-0.5c0.5,0,0.9,0,1.2,0c1.7,0,3-0.4,4-1.2
	s1.4-1.9,1.4-3.4c0-1.3-0.4-2.3-1.3-2.9s-2-1-3.5-1c-1,0-2,0.1-2.9,0.4c-0.1,0.2-0.2,2-0.2,5.5v6.8l0,2.9c0,1.1,0,1.8,0.1,2.1
	s0.1,0.5,0.2,0.6s0.3,0.2,0.5,0.3c0.3,0.1,0.9,0.1,1.9,0.2l0.1,0.1v0.7l-0.1,0.1c0,0-0.9,0-2.6-0.1c-0.7,0-1.2,0-1.6,0
	c-0.3,0-1.7,0-4.2,0.1l-0.1-0.1v-0.7l0.1-0.1c0.9,0,1.5-0.1,1.8-0.1s0.5-0.1,0.6-0.2c0.1-0.1,0.2-0.3,0.3-0.6c0.1-0.3,0.1-1,0.1-2
	l0-3.1v-6.8l0-2.9c0-1.1,0-1.8-0.1-2.2c0-0.3-0.1-0.5-0.2-0.6s-0.3-0.2-0.5-0.3s-0.9-0.1-1.9-0.2l-0.1-0.1V27.9z"/>
<path class="st1" d="M239.2,27.8l1.8,0.1c1.2,0,2,0.1,2.4,0.1c0.3,0,1.7,0,4.2-0.1l0.1,0.1v0.7l-0.1,0.1c-0.7,0-1.2,0-1.6,0.1
	c-0.4,0-0.6,0.1-0.8,0.2s-0.3,0.4-0.3,0.8c-0.1,0.4-0.1,0.9-0.1,1.6l0,3.4v6.8l0,2.9c0,1.1,0,1.8,0.1,2.1s0.1,0.5,0.2,0.6
	c0.1,0.1,0.3,0.2,0.5,0.3c0.3,0.1,0.9,0.1,1.9,0.2l0.1,0.1v0.7l-0.1,0.1c0,0-0.9,0-2.6-0.1c-0.7,0-1.2,0-1.6,0c-0.3,0-1.7,0-4.2,0.1
	l-0.1-0.1v-0.7l0.1-0.1c0.9,0,1.5-0.1,1.8-0.1s0.5-0.1,0.6-0.2c0.1-0.1,0.2-0.3,0.2-0.6s0.1-1,0.1-2l0-3.1v-6.8l0-2.9
	c0-1.1,0-1.8-0.1-2.2c0-0.3-0.1-0.5-0.2-0.6c-0.1-0.1-0.3-0.2-0.5-0.3s-0.9-0.1-1.9-0.2l-0.1-0.1v-0.7L239.2,27.8z"/>
<path class="st1" d="M268.9,46l-0.6,1.4c-2.2,1.1-4.5,1.7-6.9,1.7c-3.5,0-6.4-1-8.6-3c-2.2-2-3.3-4.6-3.3-7.9c0-2.2,0.5-4.2,1.6-5.8
	c1.1-1.7,2.5-2.9,4.4-3.7c1.8-0.8,3.8-1.2,6.1-1.2c1.3,0,2.6,0.1,3.9,0.4s2.3,0.6,3.2,1l0.1,0.1c-0.2,0.5-0.4,1.9-0.6,4.1l-0.1,0.1
	h-0.7l-0.1-0.1l-0.1-2.5c-0.7-0.6-1.6-1-2.6-1.3c-1-0.3-2.1-0.5-3.2-0.5c-1.7,0-3.1,0.4-4.4,1.1c-1.3,0.7-2.3,1.7-3,3.1
	s-1.1,3-1.1,4.9c0,2,0.4,3.7,1.3,5.1s2,2.6,3.5,3.4c1.5,0.8,3.2,1.2,5.1,1.2c0.9,0,1.7-0.1,2.5-0.2s1.5-0.4,2-0.6s1-0.5,1.5-0.9
	L268.9,46z"/>
<path class="st1" d="M287.4,27.8l0.1,0.1c-0.1,0.9-0.1,2.4-0.1,4.6l-0.1,0.1h-0.7l-0.1-0.1l-0.2-1.3c-0.1-0.7-0.1-1.2-0.2-1.3
	c0-0.2-0.1-0.3-0.2-0.4s-0.4-0.1-1-0.2s-1.1-0.1-1.8-0.1h-2.8c-0.1,2.2-0.1,3.5-0.1,3.8v8.5l0,2.9c0,1.1,0,1.8,0.1,2.1
	c0,0.3,0.1,0.5,0.2,0.6c0.1,0.1,0.3,0.2,0.5,0.3c0.3,0.1,0.9,0.1,2,0.2l0.1,0.1v0.7l-0.1,0.1c-2.5-0.1-3.9-0.1-4.2-0.1
	c-0.3,0-1.7,0-4.2,0.1l-0.1-0.1v-0.7l0.1-0.1c0.9,0,1.5-0.1,1.8-0.1c0.3-0.1,0.5-0.1,0.6-0.2c0.1-0.1,0.2-0.3,0.3-0.6s0.1-1,0.1-2
	l0-3.1v-8.5c0-0.2,0-1.4-0.1-3.8h-2.2c-0.9,0-1.7,0-2.3,0.1s-1,0.1-1.1,0.3c-0.1,0.2-0.2,0.7-0.3,1.6l-0.1,1.3l-0.1,0.1h-0.7
	l-0.1-0.1c0-2.4-0.1-3.9-0.1-4.6l0.1-0.1c1.7,0.1,4.5,0.1,8.5,0.1C283,27.9,285.8,27.9,287.4,27.8z"/>
<path class="st1" d="M289.3,43.5l0.1-0.1h0.7l0.1,0.1c0,1.3,0.1,2,0.2,2.3c0.1,0.3,0.3,0.6,0.8,0.9c0.4,0.3,1,0.6,1.8,0.8
	c0.7,0.2,1.5,0.3,2.2,0.3c1,0,2-0.2,2.8-0.6s1.5-0.9,1.9-1.7c0.5-0.7,0.7-1.6,0.7-2.5c0-0.6-0.1-1.2-0.3-1.7
	c-0.2-0.5-0.5-0.9-0.9-1.2c-0.4-0.3-0.8-0.5-1.4-0.6c-0.5-0.1-1.3-0.3-2.3-0.5c-1-0.2-1.7-0.3-2.3-0.4c-0.6-0.1-1.1-0.3-1.6-0.6
	s-1-0.6-1.4-1c-0.4-0.4-0.7-0.9-0.9-1.5c-0.2-0.6-0.3-1.2-0.3-1.9c0-1.8,0.6-3.3,1.9-4.5s3-1.8,5.1-1.8c0.8,0,1.8,0.1,2.8,0.3
	c1,0.2,1.9,0.5,2.7,0.9l0.1,0.2c-0.2,0.9-0.3,2.2-0.4,3.8l-0.1,0.1h-0.8l-0.1-0.1c0-1.2,0-1.9-0.1-2.2s-0.5-0.7-1.3-1.1
	s-1.8-0.7-2.8-0.7c-0.8,0-1.6,0.2-2.3,0.5s-1.3,0.9-1.6,1.6s-0.6,1.4-0.6,2.2c0,0.6,0.1,1.1,0.3,1.5s0.5,0.8,0.9,1.1
	s0.8,0.5,1.2,0.6c0.5,0.1,1.3,0.3,2.6,0.5c1.7,0.2,3,0.5,3.8,0.9s1.4,0.9,1.9,1.6c0.5,0.8,0.7,1.7,0.7,2.7c0,2.1-0.8,3.8-2.5,5.2
	s-3.7,2.1-6.2,2.1c-2,0-3.8-0.4-5.3-1.1l-0.1-0.2C289.2,47.2,289.2,45.7,289.3,43.5z"/>
<g>
	<rect x="316.9" y="0.1" class="st2" width="70" height="70.4"/>
	<g>
		<g>
			<line class="st3" x1="351.9" y1="16.2" x2="351.9" y2="45.9"/>
			<g>
				<polygon class="st4" points="338.8,35.3 341.1,33.1 351.9,44.7 362.6,33.1 364.9,35.3 351.9,49.4 				"/>
			</g>
		</g>
	</g>
	<line class="st5" x1="328.9" y1="54.4" x2="375.9" y2="54.4"/>
</g>
</svg>
